<?xml version="1.0" encoding="UTF-8"?>
<svg version="1.1" xmlns="http://www.w3.org/2000/svg" width="800" height="800">
<path d="M0 0 C0.69107849 0.03829926 1.38215698 0.07659851 2.09417725 0.11605835 C10.4379641 0.60342266 18.40672104 1.70411846 26.54418945 3.61694336 C29.50233555 4.28480597 32.43505785 4.76956267 35.4375 5.1875 C42.01615191 6.23088834 48.28814074 8.14820699 54.64453125 10.09375 C55.3212085 10.30064453 55.99788574 10.50753906 56.69506836 10.72070312 C58.41965191 11.24953178 60.14347221 11.78084806 61.8671875 12.3125 C68.26010396 14.01373349 74.76739874 15.19748917 81.25976562 16.45703125 C82.82694336 16.77220703 82.82694336 16.77220703 84.42578125 17.09375 C85.37622314 17.28001953 86.32666504 17.46628906 87.3059082 17.65820312 C89.625 18.3125 89.625 18.3125 91.625 20.3125 C93.28648831 21.04355486 94.95034975 21.76997246 96.62890625 22.4609375 C99.39050082 23.63907374 102.05229335 24.98881232 104.7265625 26.3515625 C106.3237904 27.16003588 107.94114597 27.92856833 109.5625 28.6875 C113.00451923 30.51387755 116.16603824 32.61331762 119.37890625 34.8125 C121.75041962 36.39625849 124.17391904 37.85520073 126.625 39.3125 C128.54696284 40.4914089 130.46358098 41.67907161 132.375 42.875 C133.33921875 43.47441406 134.3034375 44.07382813 135.296875 44.69140625 C137.625 46.3125 137.625 46.3125 138.625 48.3125 C139.37136719 48.75980469 140.11773438 49.20710938 140.88671875 49.66796875 C143.76855976 51.39871777 145.98549781 53.33144706 148.4375 55.625 C151.50141598 58.44270844 154.55323411 61.07717328 157.9375 63.5 C161.43329111 66.03794435 163.89521414 68.95276355 166.625 72.3125 C167.79292638 73.35567061 168.98156301 74.37601406 170.1875 75.375 C173.07271101 77.77514278 175.47018501 80.20956641 177.625 83.3125 C177.625 83.9725 177.625 84.6325 177.625 85.3125 C178.285 85.3125 178.945 85.3125 179.625 85.3125 C181.5703125 87.4296875 181.5703125 87.4296875 183.75 90.1875 C184.47445313 91.09242188 185.19890625 91.99734375 185.9453125 92.9296875 C187.625 95.3125 187.625 95.3125 187.625 97.3125 C188.285 97.3125 188.945 97.3125 189.625 97.3125 C189.955 98.3025 190.285 99.2925 190.625 100.3125 C191.60601309 101.33113306 192.60973553 102.32800112 193.625 103.3125 C198.50259253 109.46929057 202.67343736 115.84101871 206.30078125 122.8046875 C207.61459682 125.37256777 207.61459682 125.37256777 209.29296875 127.9453125 C210.625 130.3125 210.625 130.3125 210.625 133.3125 C211.285 133.3125 211.945 133.3125 212.625 133.3125 C213.41923861 134.87369422 214.21027123 136.43651964 215 138 C215.44085937 138.87011719 215.88171875 139.74023438 216.3359375 140.63671875 C217.625 143.3125 217.625 143.3125 218.6640625 145.95703125 C219.61680358 148.51612362 219.61680358 148.51612362 221.625 151.3125 C222.29758667 153.64413378 222.96347444 155.9777039 223.625 158.3125 C224.60440398 160.65455301 225.60534573 162.98768826 226.625 165.3125 C227.66159984 167.97160393 228.66229362 170.6270559 229.625 173.3125 C230.10646484 174.64087891 230.10646484 174.64087891 230.59765625 175.99609375 C232.4407908 181.27320522 233.95141635 186.49625263 235.08203125 191.97265625 C235.9910574 196.34216017 236.95268571 200.68428153 238.01171875 205.01953125 C241.86503358 222.265587 242.14594763 239.38222549 242.1875 257 C242.19598969 258.2021817 242.20447937 259.4043634 242.21322632 260.64297485 C242.31378762 280.69838211 240.90851606 300.47841506 235.30323792 319.82475281 C234.61508123 322.34888161 234.09702608 324.86497015 233.625 327.4375 C232.70676131 332.23358966 231.29392069 336.72919542 229.625 341.3125 C229.25181641 342.34890625 229.25181641 342.34890625 228.87109375 343.40625 C227.50175198 347.1343009 225.99367775 350.77766077 224.41943359 354.42480469 C223.6516681 356.24913253 222.93611312 358.0951627 222.22265625 359.94140625 C216.18925159 375.54346026 208.52769168 390.92412545 198.2421875 404.17578125 C196.71241628 406.19700071 195.4647101 408.21644248 194.25 410.4375 C192.625 413.3125 192.625 413.3125 190.625 414.3125 C190.295 415.3025 189.965 416.2925 189.625 417.3125 C187.97829129 418.99888844 186.30843988 420.66277708 184.625 422.3125 C182.24235994 425.20208476 179.9276047 428.13758948 177.61328125 431.08203125 C176.95714844 431.81808594 176.30101562 432.55414062 175.625 433.3125 C174.965 433.3125 174.305 433.3125 173.625 433.3125 C173.36332031 433.89 173.10164063 434.4675 172.83203125 435.0625 C169.82536413 440.66716103 164.84201275 445.73511983 159.625 449.3125 C158.965 449.3125 158.305 449.3125 157.625 449.3125 C157.39554688 449.89 157.16609375 450.4675 156.9296875 451.0625 C155.28841669 453.89295505 153.34985058 455.33753932 150.75 457.3125 C148.16943995 459.28451007 145.76092047 461.17309439 143.4921875 463.5 C141.625 465.3125 141.625 465.3125 138.625 466.3125 C137.60395449 467.29100195 136.6043879 468.29230427 135.625 469.3125 C132.625 471.3125 132.625 471.3125 129.625 471.3125 C129.625 471.9725 129.625 472.6325 129.625 473.3125 C128.985625 473.415625 128.34625 473.51875 127.6875 473.625 C126.6665625 473.9653125 126.6665625 473.9653125 125.625 474.3125 C125.295 475.3025 124.965 476.2925 124.625 477.3125 C117.10010788 481.63234548 108.89698305 484.42105497 100.5625 486.75 C96.07117724 488.05255478 92.12148562 489.9665075 87.984375 492.125 C85.31727492 493.4673815 82.63074774 494.50049422 79.8203125 495.49609375 C77.04587824 496.52786734 74.3443905 497.70613917 71.625 498.875 C66.97386389 500.83399049 62.53490619 502.19269683 57.625 503.3125 C56.86703125 503.62058594 56.1090625 503.92867187 55.328125 504.24609375 C26.62133085 515.57117294 -6.08696624 514.66584654 -36.375 514.3125 C-37.2628418 514.30524902 -38.15068359 514.29799805 -39.06542969 514.29052734 C-62.17588936 513.99320569 -85.79215541 507.58837681 -107.47021484 499.97900391 C-108.73921727 499.53496691 -110.01040374 499.09712268 -111.28369141 498.66552734 C-122.23591998 494.94249255 -132.23715107 489.93102091 -142.37768555 484.3894043 C-145.01304206 482.96848295 -147.69350369 481.64384599 -150.375 480.3125 C-152.19264479 479.34291708 -154.00527088 478.36386122 -155.8125 477.375 C-157.14087891 476.64990234 -157.14087891 476.64990234 -158.49609375 475.91015625 C-159.92115234 475.11931641 -159.92115234 475.11931641 -161.375 474.3125 C-162.5196875 473.70277344 -163.664375 473.09304688 -164.84375 472.46484375 C-168.51086971 470.36226836 -171.4186215 467.74740969 -174.4375 464.8125 C-177.38263313 461.97185911 -180.28025391 459.28976468 -183.74609375 457.09375 C-184.61363281 456.5059375 -185.48117188 455.918125 -186.375 455.3125 C-186.375 454.6525 -186.375 453.9925 -186.375 453.3125 C-187.24125 452.90644531 -187.24125 452.90644531 -188.125 452.4921875 C-199.6376509 446.45604067 -211.42357848 434.229169 -218.375 423.3125 C-218.375 422.6525 -218.375 421.9925 -218.375 421.3125 C-219.035 421.3125 -219.695 421.3125 -220.375 421.3125 C-221.82026736 419.57701831 -223.1837222 417.77274037 -224.5 415.9375 C-225.58667969 414.44089844 -225.58667969 414.44089844 -226.6953125 412.9140625 C-228.375 410.3125 -228.375 410.3125 -228.375 408.3125 C-229.035 408.3125 -229.695 408.3125 -230.375 408.3125 C-230.375 407.3225 -230.375 406.3325 -230.375 405.3125 C-231.035 405.3125 -231.695 405.3125 -232.375 405.3125 C-233.8828125 403.44921875 -233.8828125 403.44921875 -235.5 401 C-236.03882813 400.19949219 -236.57765625 399.39898438 -237.1328125 398.57421875 C-238.375 396.3125 -238.375 396.3125 -238.375 393.3125 C-239.035 393.3125 -239.695 393.3125 -240.375 393.3125 C-240.71233154 392.67223877 -241.04966309 392.03197754 -241.3972168 391.37231445 C-242.94292672 388.45146482 -244.50254181 385.53826306 -246.0625 382.625 C-246.59294922 381.61759766 -247.12339844 380.61019531 -247.66992188 379.57226562 C-250.80141897 373.71293763 -250.80141897 373.71293763 -255.05859375 368.66796875 C-258.34488509 365.32625934 -259.34650888 361.71846116 -260.75 357.3125 C-261.03818604 356.44399414 -261.32637207 355.57548828 -261.62329102 354.68066406 C-262.23327744 352.84032695 -262.83772825 350.99814704 -263.43701172 349.15429688 C-264.38168692 346.29224083 -265.37319967 343.45050827 -266.37890625 340.609375 C-267.02375594 338.7605277 -267.66829635 336.9115725 -268.3125 335.0625 C-268.61913574 334.2065625 -268.92577148 333.350625 -269.24169922 332.46875 C-270.80895363 327.87796679 -271.50958432 324.27792551 -271.29199219 319.36621094 C-271.4251162 316.07256637 -272.56119655 313.14176519 -273.56884766 310.0234375 C-278.71739654 292.70984369 -278.74439164 273.96491944 -278.6875 256.0625 C-278.68495209 255.14686279 -278.68240417 254.23122559 -278.67977905 253.2878418 C-278.66711446 250.64482788 -278.64360778 248.00224165 -278.61328125 245.359375 C-278.60571808 244.5791095 -278.59815491 243.79884399 -278.59036255 242.99493408 C-278.47428627 236.13987737 -277.93652766 229.32726417 -276.4375 222.625 C-275.63694582 218.8566771 -275.12160797 215.13925612 -274.6875 211.3125 C-271.86155804 190.97461847 -265.01370267 170.88741799 -256.375 152.3125 C-255.99730469 151.466875 -255.61960938 150.62125 -255.23046875 149.75 C-246.40085341 130.01651049 -246.40085341 130.01651049 -240.375 121.3125 C-239.715 121.3125 -239.055 121.3125 -238.375 121.3125 C-238.28347656 120.76851563 -238.19195312 120.22453125 -238.09765625 119.6640625 C-235.61775624 111.5943338 -228.69488299 104.22909668 -223.3984375 97.78125 C-221.96294729 96.02984109 -220.55400521 94.25652084 -219.1640625 92.46875 C-218.09285156 91.09203125 -218.09285156 91.09203125 -217 89.6875 C-216.35289062 88.84960938 -215.70578125 88.01171875 -215.0390625 87.1484375 C-214.48992187 86.54257813 -213.94078125 85.93671875 -213.375 85.3125 C-212.715 85.3125 -212.055 85.3125 -211.375 85.3125 C-211.11759033 84.72984375 -210.86018066 84.1471875 -210.5949707 83.546875 C-209.26921882 81.11876188 -207.81517334 79.50938292 -205.85546875 77.5625 C-205.16259766 76.8715625 -204.46972656 76.180625 -203.75585938 75.46875 C-203.03205078 74.7571875 -202.30824219 74.045625 -201.5625 73.3125 C-200.49418945 72.24515625 -200.49418945 72.24515625 -199.40429688 71.15625 C-189.47790345 61.3125 -189.47790345 61.3125 -186.375 61.3125 C-186.18035156 60.75304687 -185.98570312 60.19359375 -185.78515625 59.6171875 C-183.78852271 56.35399141 -180.91555383 54.55386477 -177.8125 52.4375 C-177.18351807 51.99841309 -176.55453613 51.55932617 -175.90649414 51.10693359 C-171.70612187 48.18619836 -167.45647089 45.34068388 -163.17578125 42.5390625 C-161.22506653 41.2550904 -161.22506653 41.2550904 -159 39.3125 C-151.69889112 33.74975038 -143.01426031 30.13174687 -134.72363281 26.28540039 C-130.39301495 24.27517048 -126.12107312 22.18539906 -121.875 20 C-117.94950936 18.02397494 -114.1208581 16.38102949 -109.921875 15.09375 C-107.19879548 14.25844953 -104.50560309 13.34579696 -101.80957031 12.42749023 C-96.05018594 10.47366485 -90.32513216 8.59457267 -84.375 7.3125 C-82.87646484 6.97798828 -82.87646484 6.97798828 -81.34765625 6.63671875 C-78.36257026 5.98194736 -75.37405826 5.34870002 -72.38163757 4.72846985 C-70.49915267 4.33823647 -68.6174664 3.94415605 -66.73583984 3.54980469 C-56.99415713 1.60676048 -47.415321 0.51755423 -37.5 0 C-36.35661163 -0.06312881 -36.35661163 -0.06312881 -35.19012451 -0.12753296 C-23.41933497 -0.75160546 -11.7655498 -0.69027422 0 0 Z " fill="#190424" transform="translate(430.375,154.6875)"/>
<path d="M0 0 C0.69107849 0.03829926 1.38215698 0.07659851 2.09417725 0.11605835 C10.4379641 0.60342266 18.40672104 1.70411846 26.54418945 3.61694336 C29.50233555 4.28480597 32.43505785 4.76956267 35.4375 5.1875 C42.69865786 6.33913525 49.6359629 8.55002154 56.64697266 10.7109375 C59.62868432 11.61774292 62.62575974 12.46565569 65.625 13.3125 C65.625 13.6425 65.625 13.9725 65.625 14.3125 C63.76705811 14.342229 63.76705811 14.342229 61.87158203 14.37255859 C57.18586075 14.44980994 52.50040303 14.53832005 47.81494141 14.62988281 C45.8039274 14.66768744 43.79285683 14.70261527 41.78173828 14.734375 C18.47862058 14.79192099 18.47862058 14.79192099 -4.1640625 19.59765625 C-6.51589894 20.35805566 -8.81770482 20.81648367 -11.25 21.25 C-17.17143928 22.39225295 -22.71714877 24.24104627 -28.375 26.3125 C-29.45467041 26.70284424 -29.45467041 26.70284424 -30.55615234 27.10107422 C-47.36955195 33.25011369 -62.44783606 41.63592283 -77.125 51.8515625 C-79.375 53.3125 -79.375 53.3125 -82.375 54.3125 C-82.705 55.3025 -83.035 56.2925 -83.375 57.3125 C-85.30859375 59.0390625 -85.30859375 59.0390625 -87.8125 60.9375 C-95.2369203 66.72854783 -102.25059417 72.74105461 -108.33203125 79.94921875 C-111.09738983 83.14815171 -113.98736787 86.22409514 -116.875 89.3125 C-120.89331215 93.61957349 -124.87832375 97.93953314 -128.7109375 102.4140625 C-129.93560893 103.81122286 -131.19654404 105.17680098 -132.4765625 106.5234375 C-138.7804849 113.21729324 -143.66361373 120.46929165 -148.375 128.3125 C-148.73513184 128.90643555 -149.09526367 129.50037109 -149.46630859 130.11230469 C-154.16612749 137.90910175 -158.1076859 145.79970203 -161.375 154.3125 C-161.79523438 155.36179687 -162.21546875 156.41109375 -162.6484375 157.4921875 C-167.31339837 169.28181587 -170.66713646 180.83849641 -172.76757812 193.33177185 C-173.58428368 198.14800822 -174.47829829 202.90697201 -175.65478516 207.64916992 C-179.31953486 222.67227243 -180.06322692 237.02367107 -179.86206055 252.45166016 C-179.81219078 256.33658879 -179.80053142 260.22024675 -179.79492188 264.10546875 C-179.7394552 276.63793883 -179.54187188 288.94822665 -177.375 301.3125 C-177.16931396 302.54806641 -176.96362793 303.78363281 -176.75170898 305.05664062 C-175.19794119 313.59438277 -172.85814373 321.69149242 -170.04101562 329.87695312 C-169.36666958 331.83670953 -168.70576286 333.80062315 -168.046875 335.765625 C-166.03313356 341.72138847 -163.90109173 347.5501148 -161.375 353.3125 C-161.03823242 354.09568604 -160.70146484 354.87887207 -160.35449219 355.68579102 C-154.21742689 369.70625407 -146.58127008 382.02495184 -137.59326172 394.39916992 C-136.375 396.3125 -136.375 396.3125 -136.375 398.3125 C-135.715 398.3125 -135.055 398.3125 -134.375 398.3125 C-132.95871791 400.34840551 -131.65776084 402.38179864 -130.375 404.5 C-125.81492495 411.81353995 -120.76464787 418.59389785 -115.375 425.3125 C-114.8078125 426.0240625 -114.240625 426.735625 -113.65625 427.46875 C-110.72089616 431.02864721 -107.53400261 434.01662754 -103.98828125 436.96484375 C-101.98292454 438.64002066 -100.11598287 440.36259919 -98.375 442.3125 C-98.375 442.9725 -98.375 443.6325 -98.375 444.3125 C-97.80652344 444.56902344 -97.23804688 444.82554687 -96.65234375 445.08984375 C-94.1274367 446.44541134 -92.13737538 448.03867907 -89.9375 449.875 C-77.55719417 459.91357643 -63.90464813 469.58018992 -48.93359375 475.20703125 C-46.3860759 476.30771453 -44.57862401 477.65103745 -42.375 479.3125 C-38.79502741 480.88434105 -35.08039347 482.06952176 -31.375 483.3125 C-30.47394531 483.6321875 -29.57289063 483.951875 -28.64453125 484.28125 C6.85587236 496.16262665 45.61502014 497.56709807 82.04248047 489.63378906 C85.97320142 488.78316465 89.57338234 488.06645034 93.625 488.3125 C90.62296896 490.76227061 87.71558875 492.24933407 84.125 493.6875 C79.85272978 495.41203835 75.60716534 497.17930958 71.375 499 C66.81537505 500.9072941 62.43513819 502.21545094 57.625 503.3125 C56.86703125 503.62058594 56.1090625 503.92867187 55.328125 504.24609375 C26.62133085 515.57117294 -6.08696624 514.66584654 -36.375 514.3125 C-37.2628418 514.30524902 -38.15068359 514.29799805 -39.06542969 514.29052734 C-62.17588936 513.99320569 -85.79215541 507.58837681 -107.47021484 499.97900391 C-108.73921727 499.53496691 -110.01040374 499.09712268 -111.28369141 498.66552734 C-122.23591998 494.94249255 -132.23715107 489.93102091 -142.37768555 484.3894043 C-145.01304206 482.96848295 -147.69350369 481.64384599 -150.375 480.3125 C-152.19264479 479.34291708 -154.00527088 478.36386122 -155.8125 477.375 C-157.14087891 476.64990234 -157.14087891 476.64990234 -158.49609375 475.91015625 C-159.92115234 475.11931641 -159.92115234 475.11931641 -161.375 474.3125 C-162.5196875 473.70277344 -163.664375 473.09304688 -164.84375 472.46484375 C-168.51086971 470.36226836 -171.4186215 467.74740969 -174.4375 464.8125 C-177.38263313 461.97185911 -180.28025391 459.28976468 -183.74609375 457.09375 C-184.61363281 456.5059375 -185.48117188 455.918125 -186.375 455.3125 C-186.375 454.6525 -186.375 453.9925 -186.375 453.3125 C-187.24125 452.90644531 -187.24125 452.90644531 -188.125 452.4921875 C-199.6376509 446.45604067 -211.42357848 434.229169 -218.375 423.3125 C-218.375 422.6525 -218.375 421.9925 -218.375 421.3125 C-219.035 421.3125 -219.695 421.3125 -220.375 421.3125 C-221.82026736 419.57701831 -223.1837222 417.77274037 -224.5 415.9375 C-225.58667969 414.44089844 -225.58667969 414.44089844 -226.6953125 412.9140625 C-228.375 410.3125 -228.375 410.3125 -228.375 408.3125 C-229.035 408.3125 -229.695 408.3125 -230.375 408.3125 C-230.375 407.3225 -230.375 406.3325 -230.375 405.3125 C-231.035 405.3125 -231.695 405.3125 -232.375 405.3125 C-233.8828125 403.44921875 -233.8828125 403.44921875 -235.5 401 C-236.03882813 400.19949219 -236.57765625 399.39898438 -237.1328125 398.57421875 C-238.375 396.3125 -238.375 396.3125 -238.375 393.3125 C-239.035 393.3125 -239.695 393.3125 -240.375 393.3125 C-240.71233154 392.67223877 -241.04966309 392.03197754 -241.3972168 391.37231445 C-242.94292672 388.45146482 -244.50254181 385.53826306 -246.0625 382.625 C-246.59294922 381.61759766 -247.12339844 380.61019531 -247.66992188 379.57226562 C-250.80141897 373.71293763 -250.80141897 373.71293763 -255.05859375 368.66796875 C-258.34488509 365.32625934 -259.34650888 361.71846116 -260.75 357.3125 C-261.03818604 356.44399414 -261.32637207 355.57548828 -261.62329102 354.68066406 C-262.23327744 352.84032695 -262.83772825 350.99814704 -263.43701172 349.15429688 C-264.38168692 346.29224083 -265.37319967 343.45050827 -266.37890625 340.609375 C-267.02375594 338.7605277 -267.66829635 336.9115725 -268.3125 335.0625 C-268.61913574 334.2065625 -268.92577148 333.350625 -269.24169922 332.46875 C-270.80895363 327.87796679 -271.50958432 324.27792551 -271.29199219 319.36621094 C-271.4251162 316.07256637 -272.56119655 313.14176519 -273.56884766 310.0234375 C-278.71739654 292.70984369 -278.74439164 273.96491944 -278.6875 256.0625 C-278.68495209 255.14686279 -278.68240417 254.23122559 -278.67977905 253.2878418 C-278.66711446 250.64482788 -278.64360778 248.00224165 -278.61328125 245.359375 C-278.60571808 244.5791095 -278.59815491 243.79884399 -278.59036255 242.99493408 C-278.47428627 236.13987737 -277.93652766 229.32726417 -276.4375 222.625 C-275.63694582 218.8566771 -275.12160797 215.13925612 -274.6875 211.3125 C-271.86155804 190.97461847 -265.01370267 170.88741799 -256.375 152.3125 C-255.99730469 151.466875 -255.61960938 150.62125 -255.23046875 149.75 C-246.40085341 130.01651049 -246.40085341 130.01651049 -240.375 121.3125 C-239.715 121.3125 -239.055 121.3125 -238.375 121.3125 C-238.28347656 120.76851563 -238.19195312 120.22453125 -238.09765625 119.6640625 C-235.61775624 111.5943338 -228.69488299 104.22909668 -223.3984375 97.78125 C-221.96294729 96.02984109 -220.55400521 94.25652084 -219.1640625 92.46875 C-218.09285156 91.09203125 -218.09285156 91.09203125 -217 89.6875 C-216.35289062 88.84960938 -215.70578125 88.01171875 -215.0390625 87.1484375 C-214.48992187 86.54257813 -213.94078125 85.93671875 -213.375 85.3125 C-212.715 85.3125 -212.055 85.3125 -211.375 85.3125 C-211.11759033 84.72984375 -210.86018066 84.1471875 -210.5949707 83.546875 C-209.26921882 81.11876188 -207.81517334 79.50938292 -205.85546875 77.5625 C-205.16259766 76.8715625 -204.46972656 76.180625 -203.75585938 75.46875 C-203.03205078 74.7571875 -202.30824219 74.045625 -201.5625 73.3125 C-200.49418945 72.24515625 -200.49418945 72.24515625 -199.40429688 71.15625 C-189.47790345 61.3125 -189.47790345 61.3125 -186.375 61.3125 C-186.18035156 60.75304687 -185.98570312 60.19359375 -185.78515625 59.6171875 C-183.78852271 56.35399141 -180.91555383 54.55386477 -177.8125 52.4375 C-177.18351807 51.99841309 -176.55453613 51.55932617 -175.90649414 51.10693359 C-171.70612187 48.18619836 -167.45647089 45.34068388 -163.17578125 42.5390625 C-161.22506653 41.2550904 -161.22506653 41.2550904 -159 39.3125 C-151.69889112 33.74975038 -143.01426031 30.13174687 -134.72363281 26.28540039 C-130.39301495 24.27517048 -126.12107312 22.18539906 -121.875 20 C-117.94950936 18.02397494 -114.1208581 16.38102949 -109.921875 15.09375 C-107.19879548 14.25844953 -104.50560309 13.34579696 -101.80957031 12.42749023 C-96.05018594 10.47366485 -90.32513216 8.59457267 -84.375 7.3125 C-82.87646484 6.97798828 -82.87646484 6.97798828 -81.34765625 6.63671875 C-78.36257026 5.98194736 -75.37405826 5.34870002 -72.38163757 4.72846985 C-70.49915267 4.33823647 -68.6174664 3.94415605 -66.73583984 3.54980469 C-56.99415713 1.60676048 -47.415321 0.51755423 -37.5 0 C-36.35661163 -0.06312881 -36.35661163 -0.06312881 -35.19012451 -0.12753296 C-23.41933497 -0.75160546 -11.7655498 -0.69027422 0 0 Z " fill="#DD0BDA" transform="translate(430.375,154.6875)"/>
<path d="M0 0 C3.0977251 -0.00438013 6.19402802 -0.04088102 9.29150391 -0.07861328 C22.28074703 -0.15108379 34.68760058 0.80762564 47.23291016 4.37060547 C47.89291016 5.03060547 48.55291016 5.69060547 49.23291016 6.37060547 C50.89439847 7.10166032 52.55825991 7.82807792 54.23681641 8.51904297 C56.99841098 9.69717921 59.66020351 11.04691779 62.33447266 12.40966797 C63.93170055 13.21814135 65.54905613 13.9866738 67.17041016 14.74560547 C70.61242939 16.57198302 73.77394839 18.67142309 76.98681641 20.87060547 C79.35832977 22.45436396 81.7818292 23.9133062 84.23291016 25.37060547 C86.154873 26.54951437 88.07149114 27.73717708 89.98291016 28.93310547 C91.42923828 29.83222656 91.42923828 29.83222656 92.90478516 30.74951172 C95.23291016 32.37060547 95.23291016 32.37060547 96.23291016 34.37060547 C96.97927734 34.81791016 97.72564453 35.26521484 98.49462891 35.72607422 C101.37646992 37.45682324 103.59340796 39.38955253 106.04541016 41.68310547 C109.10932613 44.50081391 112.16114427 47.13527875 115.54541016 49.55810547 C119.04120127 52.09604981 121.50312429 55.01086902 124.23291016 58.37060547 C125.40083654 59.41377608 126.58947316 60.43411953 127.79541016 61.43310547 C130.68062116 63.83324825 133.07809517 66.26767188 135.23291016 69.37060547 C135.23291016 70.03060547 135.23291016 70.69060547 135.23291016 71.37060547 C135.89291016 71.37060547 136.55291016 71.37060547 137.23291016 71.37060547 C139.17822266 73.48779297 139.17822266 73.48779297 141.35791016 76.24560547 C142.08236328 77.15052734 142.80681641 78.05544922 143.55322266 78.98779297 C145.23291016 81.37060547 145.23291016 81.37060547 145.23291016 83.37060547 C145.89291016 83.37060547 146.55291016 83.37060547 147.23291016 83.37060547 C147.56291016 84.36060547 147.89291016 85.35060547 148.23291016 86.37060547 C149.21392325 87.38923853 150.21764568 88.38610659 151.23291016 89.37060547 C156.11050269 95.52739604 160.28134751 101.89912417 163.90869141 108.86279297 C165.22250698 111.43067324 165.22250698 111.43067324 166.90087891 114.00341797 C168.23291016 116.37060547 168.23291016 116.37060547 168.23291016 119.37060547 C168.89291016 119.37060547 169.55291016 119.37060547 170.23291016 119.37060547 C171.02714877 120.93179969 171.81818139 122.49462511 172.60791016 124.05810547 C173.04876953 124.92822266 173.48962891 125.79833984 173.94384766 126.69482422 C175.23291016 129.37060547 175.23291016 129.37060547 176.27197266 132.01513672 C177.22471374 134.57422909 177.22471374 134.57422909 179.23291016 137.37060547 C179.90549682 139.70223924 180.5713846 142.03580937 181.23291016 144.37060547 C182.21231414 146.71265847 183.21325589 149.04579373 184.23291016 151.37060547 C185.26950999 154.0297094 186.27020378 156.68516137 187.23291016 159.37060547 C187.714375 160.69898438 187.714375 160.69898438 188.20556641 162.05419922 C190.04870096 167.33131069 191.5593265 172.5543581 192.68994141 178.03076172 C193.59896756 182.40026564 194.56059587 186.742387 195.61962891 191.07763672 C199.47294373 208.32369247 199.75385779 225.44033096 199.79541016 243.05810547 C199.80389984 244.26028717 199.81238953 245.46246887 199.82113647 246.70108032 C199.92169778 266.75648758 198.51642622 286.53652053 192.91114807 305.88285828 C192.22299139 308.40698708 191.70493623 310.92307562 191.23291016 313.49560547 C190.31467147 318.29169513 188.90183085 322.78730088 187.23291016 327.37060547 C186.85972656 328.40701172 186.85972656 328.40701172 186.47900391 329.46435547 C185.10966213 333.19240637 183.6015879 336.83576624 182.02734375 340.48291016 C181.25957825 342.307238 180.54402328 344.15326817 179.83056641 345.99951172 C173.79716175 361.60156573 166.13560184 376.98223092 155.85009766 390.23388672 C154.32032644 392.25510618 153.07262026 394.27454795 151.85791016 396.49560547 C150.23291016 399.37060547 150.23291016 399.37060547 148.23291016 400.37060547 C147.90291016 401.36060547 147.57291016 402.35060547 147.23291016 403.37060547 C145.58620144 405.05699391 143.91635004 406.72088255 142.23291016 408.37060547 C139.85027009 411.26019023 137.53551486 414.19569495 135.22119141 417.14013672 C134.56505859 417.87619141 133.90892578 418.61224609 133.23291016 419.37060547 C132.57291016 419.37060547 131.91291016 419.37060547 131.23291016 419.37060547 C130.97123047 419.94810547 130.70955078 420.52560547 130.43994141 421.12060547 C127.43327429 426.7252665 122.44992291 431.7932253 117.23291016 435.37060547 C116.57291016 435.37060547 115.91291016 435.37060547 115.23291016 435.37060547 C115.00345703 435.94810547 114.77400391 436.52560547 114.53759766 437.12060547 C112.89632684 439.95106052 110.95776074 441.39564479 108.35791016 443.37060547 C105.77735011 445.34261554 103.36883063 447.23119985 101.10009766 449.55810547 C99.23291016 451.37060547 99.23291016 451.37060547 96.23291016 452.37060547 C95.21186464 453.34910742 94.21229806 454.35040974 93.23291016 455.37060547 C90.23291016 457.37060547 90.23291016 457.37060547 87.23291016 457.37060547 C87.23291016 458.03060547 87.23291016 458.69060547 87.23291016 459.37060547 C86.59353516 459.47373047 85.95416016 459.57685547 85.29541016 459.68310547 C84.27447266 460.02341797 84.27447266 460.02341797 83.23291016 460.37060547 C82.90291016 461.36060547 82.57291016 462.35060547 82.23291016 463.37060547 C76.21256479 466.82672966 69.81123314 469.19163954 63.23291016 471.37060547 C62.57758301 471.59458008 61.92225586 471.81855469 61.24707031 472.04931641 C53.8405203 474.44357407 46.26438086 475.78413829 38.61132812 477.10546875 C36.36770824 477.49390912 34.12649341 477.89446529 31.88525391 478.29638672 C7.65858377 482.57969547 -16.52961657 482.64833863 -40.76708984 478.37060547 C-42.07033203 478.1458252 -42.07033203 478.1458252 -43.39990234 477.91650391 C-58.56997345 475.25042051 -74.91752718 472.04725942 -88.20458984 463.87060547 C-90.52249223 462.51378456 -92.56510402 461.70613612 -95.07958984 460.80810547 C-111.14304131 454.53070913 -132.69077212 440.64829464 -143.45458984 427.24560547 C-145.31440697 424.93340039 -146.88904204 423.34579042 -149.14208984 421.49560547 C-160.3330166 412.13767534 -169.32321365 398.82439289 -176.76708984 386.37060547 C-176.76708984 385.71060547 -176.76708984 385.05060547 -176.76708984 384.37060547 C-177.42708984 384.37060547 -178.08708984 384.37060547 -178.76708984 384.37060547 C-180.40228885 382.17311685 -181.90994382 379.98130825 -183.39208984 377.68310547 C-183.83866943 376.99829102 -184.28524902 376.31347656 -184.74536133 375.60791016 C-185.66018596 374.19938359 -186.5712282 372.78839334 -187.47851562 371.375 C-188.60346165 369.62513132 -189.74448201 367.88561738 -190.88818359 366.14794922 C-201.54217843 349.53457699 -208.8226344 331.11503401 -214.76708984 312.37060547 C-215.01297852 311.60296875 -215.25886719 310.83533203 -215.51220703 310.04443359 C-217.38109952 304.04418104 -218.75153701 298.04783959 -219.89208984 291.87060547 C-220.14539063 290.5615625 -220.14539063 290.5615625 -220.40380859 289.22607422 C-222.32898686 278.99382751 -222.94944976 268.91060884 -223.07568359 258.50732422 C-223.09080994 257.28929611 -223.10593628 256.07126801 -223.121521 254.81632996 C-223.16125756 250.89689836 -223.1864788 246.9776952 -223.20458984 243.05810547 C-223.20789433 242.39356606 -223.21119881 241.72902664 -223.21460342 241.04434967 C-223.29630447 222.06898493 -222.72698305 204.35055082 -217.47607422 186.00097656 C-216.41480552 182.06361122 -215.81232133 178.08553603 -215.20458984 174.05810547 C-213.24088838 162.5744712 -209.58682694 151.77895233 -204.94677734 141.10107422 C-203.83416423 138.5258538 -202.82569316 135.9300799 -201.82958984 133.30810547 C-194.88282466 115.91340546 -183.3139901 99.37933163 -169.84912109 86.40966797 C-167.26577245 83.87963421 -164.92020214 81.19257321 -162.56396484 78.45263672 C-159.82884574 75.28346611 -157.02352951 72.17940585 -154.21240234 69.07763672 C-152.50744115 67.19019565 -150.81570031 65.29076423 -149.13427734 63.38232422 C-143.92038971 57.50804823 -138.58587929 52.32295582 -132.38427734 47.45654297 C-129.90394998 45.47968504 -127.5900621 43.40324162 -125.26708984 41.24560547 C-120.45163118 36.95210211 -115.30722683 33.656914 -109.76708984 30.37060547 C-109.05037109 29.93200195 -108.33365234 29.49339844 -107.59521484 29.04150391 C-90.17446902 18.40260889 -70.87259481 8.90566057 -50.57958984 5.30810547 C-47.83780339 4.81766667 -45.27638337 4.22093374 -42.60620117 3.40649414 C-28.87488799 -0.29855908 -14.11542662 -0.00222395 0 0 Z M-127.21240234 49.45263672 C-128.09669922 50.35369141 -128.98099609 51.25474609 -129.89208984 52.18310547 C-131.22626953 53.52308594 -131.22626953 53.52308594 -132.58740234 54.89013672 C-134.94095499 57.24440808 -134.94095499 57.24440808 -135.76708984 60.37060547 C-137.42929565 61.37800293 -139.09729659 62.37583502 -140.76708984 63.37060547 C-150.00252913 70.61785991 -158.45993424 79.44822986 -166.05615234 88.37841797 C-168.09792245 90.75582152 -170.21425003 93.05848986 -172.32958984 95.37060547 C-176.0821824 99.53164348 -179.53196144 103.79815955 -182.76708984 108.37060547 C-183.18087891 108.93908203 -183.59466797 109.50755859 -184.02099609 110.09326172 C-185.90535884 112.76551133 -186.76708984 114.02168476 -186.76708984 117.37060547 C-187.42708984 117.37060547 -188.08708984 117.37060547 -188.76708984 117.37060547 C-190.22920632 119.34517198 -190.22920632 119.34517198 -191.64208984 121.87060547 C-192.13451172 122.70591797 -192.62693359 123.54123047 -193.13427734 124.40185547 C-196.58784684 130.68107273 -199.47025524 136.89181867 -201.76708984 143.68310547 C-202.28228377 145.17544186 -202.79790918 146.66762935 -203.31396484 148.15966797 C-203.56082031 148.87799805 -203.80767578 149.59632813 -204.06201172 150.33642578 C-205.29720963 153.90002309 -206.60416906 157.43706177 -207.90771484 160.97607422 C-208.19130859 161.76626953 -208.47490234 162.55646484 -208.76708984 163.37060547 C-209.10353516 164.29744141 -209.43998047 165.22427734 -209.78662109 166.17919922 C-210.90807802 169.82951918 -211.58750785 173.48591208 -212.20458984 177.24560547 C-212.46280319 178.76919598 -212.7219386 180.29263048 -212.98193359 181.81591797 C-213.17698486 182.96302246 -213.17698486 182.96302246 -213.37597656 184.13330078 C-213.9596161 187.47192298 -214.61744996 190.79417718 -215.26708984 194.12060547 C-215.6435725 196.16304887 -216.01307042 198.20659984 -216.37890625 200.25097656 C-216.63785354 201.6649265 -216.90839432 203.0768019 -217.19042969 204.48632812 C-219.73736748 217.36491189 -220.0375854 230.1015469 -220.01708984 243.18310547 C-220.01631439 244.01182159 -220.01553894 244.84053772 -220.01473999 245.69436646 C-219.97578906 260.0750866 -219.90503505 274.59693123 -217.07958984 288.74560547 C-216.90878906 289.6220874 -216.73798828 290.49856934 -216.56201172 291.40161133 C-214.86614068 299.64964377 -212.31562831 307.51308853 -209.45898438 315.42236328 C-208.47383949 318.19634216 -207.59528119 321.00260804 -206.70458984 323.80810547 C-204.78835097 329.53326178 -202.39860318 334.94130185 -199.76708984 340.37060547 C-199.19474609 341.55525391 -198.62240234 342.73990234 -198.03271484 343.96044922 C-195.23203017 349.67817191 -192.30406257 355.06864834 -188.76708984 360.37060547 C-188.26822266 361.37478516 -187.76935547 362.37896484 -187.25537109 363.41357422 C-185.73207442 366.44017679 -183.98743164 368.97665929 -181.95458984 371.68310547 C-179.51942328 374.97124326 -177.1336677 378.2600692 -174.89208984 381.68310547 C-162.80405667 399.92858181 -148.65256977 419.36016087 -130.76708984 432.37060547 C-130.10708984 432.37060547 -129.44708984 432.37060547 -128.76708984 432.37060547 C-128.55439453 432.94939453 -128.34169922 433.52818359 -128.12255859 434.12451172 C-126.28952933 437.16195215 -124.06615836 438.41573771 -121.07958984 440.30810547 C-114.28749748 444.67214581 -114.28749748 444.67214581 -111.20458984 446.99560547 C-106.67122858 450.26969971 -101.71202852 452.78229085 -96.76708984 455.37060547 C-95.46191406 456.08023438 -95.46191406 456.08023438 -94.13037109 456.80419922 C-50.9032182 479.55857785 1.79772967 485.09560231 48.6652832 471.07592773 C51.60214371 470.12850479 54.50899627 469.11911233 57.40234375 468.04638672 C59.09043903 467.42320084 60.79594429 466.84772667 62.50244141 466.27685547 C68.47028249 464.25219803 73.83707428 461.62143004 79.23291016 458.37060547 C79.23291016 457.71060547 79.23291016 457.05060547 79.23291016 456.37060547 C79.83103516 456.24685547 80.42916016 456.12310547 81.04541016 455.99560547 C83.49522364 455.41584562 83.49522364 455.41584562 86.23291016 453.37060547 C86.23291016 452.71060547 86.23291016 452.05060547 86.23291016 451.37060547 C86.91482422 451.31388672 87.59673828 451.25716797 88.29931641 451.19873047 C92.35484246 450.05389489 94.95401172 447.77266274 98.17041016 445.12060547 C98.7653125 444.64236328 99.36021484 444.16412109 99.97314453 443.67138672 C107.4948085 437.92657686 107.4948085 437.92657686 114.23291016 431.37060547 C114.23291016 430.71060547 114.23291016 430.05060547 114.23291016 429.37060547 C114.81041016 429.12310547 115.38791016 428.87560547 115.98291016 428.62060547 C118.56230995 427.18760558 120.29412608 425.5863587 122.23291016 423.37060547 C122.23291016 422.71060547 122.23291016 422.05060547 122.23291016 421.37060547 C122.89291016 421.37060547 123.55291016 421.37060547 124.23291016 421.37060547 C124.23291016 420.71060547 124.23291016 420.05060547 124.23291016 419.37060547 C124.83103516 419.10248047 125.42916016 418.83435547 126.04541016 418.55810547 C128.23138869 417.37143141 129.64623609 416.27461434 131.23291016 414.37060547 C131.23291016 413.71060547 131.23291016 413.05060547 131.23291016 412.37060547 C131.89291016 412.37060547 132.55291016 412.37060547 133.23291016 412.37060547 C135.50315546 410.02360068 137.39244057 407.34951066 139.35791016 404.74560547 C139.92123047 404.03275391 140.48455078 403.31990234 141.06494141 402.58544922 C143.6483926 399.1762945 145.14869432 397.17871908 145.60009766 392.84716797 C145.47892578 392.02990234 145.35775391 391.21263672 145.23291016 390.37060547 C142.92291016 389.71060547 140.61291016 389.05060547 138.23291016 388.37060547 C138.56291016 387.71060547 138.89291016 387.05060547 139.23291016 386.37060547 C139.32846433 384.9148096 139.36275707 383.45452587 139.35791016 381.99560547 C139.36177734 380.83931641 139.36177734 380.83931641 139.36572266 379.65966797 C139.31774025 377.37034235 139.31774025 377.37034235 138.61962891 375.24951172 C138.23291016 373.37060547 138.23291016 373.37060547 139.92041016 370.68310547 C140.29423828 370.17005859 140.66806641 369.65701172 141.05322266 369.12841797 C144.22545308 364.40158456 146.14591685 358.811138 148.10791016 353.49560547 C148.37345703 352.77630859 148.63900391 352.05701172 148.91259766 351.31591797 C149.51280891 349.05106341 149.51280891 349.05106341 147.23291016 346.37060547 C146.57291016 346.37060547 145.91291016 346.37060547 145.23291016 346.37060547 C145.97541016 344.79279297 145.97541016 344.79279297 146.73291016 343.18310547 C148.05077304 340.11845263 148.63002553 337.74608614 148.23291016 334.37060547 C147.90291016 334.04060547 147.57291016 333.71060547 147.23291016 333.37060547 C147.09813429 329.46210543 147.15004123 325.93665367 147.71728516 322.06201172 C148.23759816 318.33704362 148.44375291 314.68917957 148.60791016 310.93310547 C149.06126434 303.75027514 150.35657766 298.82305727 153.79541016 292.49560547 C155.39703941 289.01380275 156.06369991 285.79026549 156.70556641 282.03076172 C157.23291016 279.37060547 157.23291016 279.37060547 158.24853516 276.07373047 C159.329067 272.00887258 159.70727685 268.2393935 159.92041016 264.05810547 C159.96746094 263.34332031 160.01451172 262.62853516 160.06298828 261.89208984 C160.37312404 258.00893765 160.37312404 258.00893765 159.23291016 254.37060547 C160.55291016 253.71060547 161.87291016 253.05060547 163.23291016 252.37060547 C163.73966602 247.06050252 163.73966602 247.06050252 161.85791016 242.37060547 C160.26703108 241.19590633 160.26703108 241.19590633 158.23291016 241.37060547 C157.90291016 239.39060547 157.57291016 237.41060547 157.23291016 235.37060547 C156.57291016 235.37060547 155.91291016 235.37060547 155.23291016 235.37060547 C155.11173828 234.71833984 154.99056641 234.06607422 154.86572266 233.39404297 C154.69814453 232.52005859 154.53056641 231.64607422 154.35791016 230.74560547 C154.19548828 229.88708984 154.03306641 229.02857422 153.86572266 228.14404297 C153.2828423 225.30903896 153.2828423 225.30903896 152.14697266 222.45263672 C151.1055598 218.94120619 151.16187382 216.32010919 151.48291016 212.68310547 C151.61439453 211.00667969 151.61439453 211.00667969 151.74853516 209.29638672 C152.23291016 206.37060547 152.23291016 206.37060547 154.23291016 203.37060547 C153.92073376 200.7242826 153.92073376 200.7242826 153.23291016 198.37060547 C152.57291016 198.37060547 151.91291016 198.37060547 151.23291016 198.37060547 C149.81441366 195.09715202 148.73771633 191.78796656 147.73291016 188.37060547 C146.25376422 183.27083309 146.25376422 183.27083309 144.23291016 178.37060547 C143.57291016 178.04060547 142.91291016 177.71060547 142.23291016 177.37060547 C141.23291016 175.37060547 140.23291016 173.37060547 139.23291016 171.37060547 C137.94049965 169.6720088 136.6180054 167.99451024 135.23291016 166.37060547 C133.91291016 166.70060547 132.59291016 167.03060547 131.23291016 167.37060547 C130.90291016 168.69060547 130.57291016 170.01060547 130.23291016 171.37060547 C126.14897557 170.32789877 122.53065979 169.08259586 118.73291016 167.24560547 C114.72545948 165.37865319 111.66348229 165.28199403 107.23291016 165.37060547 C105.67041016 164.05810547 105.67041016 164.05810547 104.23291016 162.37060547 C100.90632181 160.32928989 98.8535579 159.37060547 94.92041016 159.37060547 C90.24574323 159.37060547 86.43301988 158.42545367 82.23291016 156.37060547 C80.10791016 154.05810547 80.10791016 154.05810547 78.23291016 151.37060547 C75.97407574 149.27945745 73.61581534 147.31842965 71.23291016 145.37060547 C69.58291016 146.03060547 67.93291016 146.69060547 66.23291016 147.37060547 C66.11173828 146.69513672 65.99056641 146.01966797 65.86572266 145.32373047 C65.69814453 144.43169922 65.53056641 143.53966797 65.35791016 142.62060547 C65.11427734 141.29802734 65.11427734 141.29802734 64.86572266 139.94873047 C64.25810934 137.4732688 63.55468716 135.54419432 62.23291016 133.37060547 C61.57291016 133.04060547 60.91291016 132.71060547 60.23291016 132.37060547 C59.52197266 130.59326172 59.52197266 130.59326172 58.85791016 128.43310547 C57.73197574 125.0972195 57.73197574 125.0972195 55.04541016 122.87060547 C54.44728516 122.70560547 53.84916016 122.54060547 53.23291016 122.37060547 C52.57291016 123.03060547 51.91291016 123.69060547 51.23291016 124.37060547 C50.36666016 122.88560547 50.36666016 122.88560547 49.48291016 121.37060547 C48.74041016 120.38060547 47.99791016 119.39060547 47.23291016 118.37060547 C45.91291016 118.37060547 44.59291016 118.37060547 43.23291016 118.37060547 C41.45166016 116.69091797 41.45166016 116.69091797 39.73291016 114.49560547 C36.87436604 110.87045179 34.69618366 108.84707808 30.09228516 107.95654297 C28.13916016 107.76123047 26.18603516 107.56591797 24.23291016 107.37060547 C23.90291016 106.05060547 23.57291016 104.73060547 23.23291016 103.37060547 C22.57291016 103.37060547 21.91291016 103.37060547 21.23291016 103.37060547 C21.17103516 102.81373047 21.10916016 102.25685547 21.04541016 101.68310547 C19.89878736 98.4196406 17.71335858 96.73005641 15.23291016 94.37060547 C14.57291016 93.38060547 13.91291016 92.39060547 13.23291016 91.37060547 C11.91291016 91.70060547 10.59291016 92.03060547 9.23291016 92.37060547 C9.23291016 93.36060547 9.23291016 94.35060547 9.23291016 95.37060547 C2.48291016 92.74560547 2.48291016 92.74560547 0.23291016 89.37060547 C-0.75708984 89.37060547 -1.74708984 89.37060547 -2.76708984 89.37060547 C-2.76708984 88.71060547 -2.76708984 88.05060547 -2.76708984 87.37060547 C-5.03157627 85.3863726 -5.03157627 85.3863726 -7.89208984 83.37060547 C-8.84341797 82.66935547 -9.79474609 81.96810547 -10.77490234 81.24560547 C-15.76296233 78.11992819 -19.92453274 77.11093626 -25.76708984 77.37060547 C-29.5540997 77.37060547 -31.40246052 77.22458489 -34.76708984 75.37060547 C-36.06027032 72.56009323 -36.96300633 69.77855167 -37.81005859 66.80419922 C-38.28378906 65.59957031 -38.28378906 65.59957031 -38.76708984 64.37060547 C-39.75708984 64.04060547 -40.74708984 63.71060547 -41.76708984 63.37060547 C-44.4763725 66.86645406 -45.96780863 69.24016065 -46.39208984 73.68310547 C-46.57771484 75.50841797 -46.57771484 75.50841797 -46.76708984 77.37060547 C-47.42708984 77.70060547 -48.08708984 78.03060547 -48.76708984 78.37060547 C-49.09708984 77.38060547 -49.42708984 76.39060547 -49.76708984 75.37060547 C-53.1203031 77.60608097 -53.28371772 78.18913558 -54.32958984 81.87060547 C-55.56435636 86.16787198 -55.56435636 86.16787198 -57.76708984 88.37060547 C-57.82548273 91.53114334 -57.82548273 91.53114334 -57.45458984 95.12060547 C-57.35533203 96.33232422 -57.25607422 97.54404297 -57.15380859 98.79248047 C-56.80531266 102.01694791 -56.33103051 105.17797364 -55.76708984 108.37060547 C-55.55052734 109.91748047 -55.55052734 109.91748047 -55.32958984 111.49560547 C-54.83878166 114.87672853 -54.31557075 118.24846361 -53.76708984 121.62060547 C-53.60208984 122.63638672 -53.43708984 123.65216797 -53.26708984 124.69873047 C-52.81340885 127.45886484 -52.81340885 127.45886484 -51.76708984 130.37060547 C-51.66396484 131.09248047 -51.56083984 131.81435547 -51.45458984 132.55810547 C-50.49686165 136.47608444 -48.65790579 139.82642488 -46.76708984 143.37060547 C-48.41708984 143.37060547 -50.06708984 143.37060547 -51.76708984 143.37060547 C-51.69490234 144.06025391 -51.62271484 144.74990234 -51.54833984 145.46044922 C-50.95515043 151.46649206 -50.66816689 157.33630547 -50.76708984 163.37060547 C-51.68167969 163.79986328 -51.68167969 163.79986328 -52.61474609 164.23779297 C-57.88328076 167.01070595 -60.73510324 171.66249516 -63.55615234 176.69873047 C-64.76708984 178.37060547 -64.76708984 178.37060547 -67.76708984 179.37060547 C-67.82896484 178.68998047 -67.89083984 178.00935547 -67.95458984 177.30810547 C-68.90563855 173.86969859 -70.47971827 171.8505825 -72.70849609 169.11669922 C-73.76708984 167.37060547 -73.76708984 167.37060547 -73.76708984 163.37060547 C-73.10708984 163.37060547 -72.44708984 163.37060547 -71.76708984 163.37060547 C-71.39583984 162.19498047 -71.39583984 162.19498047 -71.01708984 160.99560547 C-68.69089164 154.24963069 -66.15939708 147.93515227 -62.57958984 141.74560547 C-59.97391718 137.1315302 -58.96614199 133.64548725 -58.76708984 128.37060547 C-60.45682711 127.48503803 -60.45682711 127.48503803 -62.76708984 127.37060547 C-66.67233099 129.56730361 -69.67152436 132.16448408 -72.76708984 135.37060547 C-73.75708984 135.86560547 -73.75708984 135.86560547 -74.76708984 136.37060547 C-74.76708984 135.05060547 -74.76708984 133.73060547 -74.76708984 132.37060547 C-79.77663894 132.7702541 -82.52797822 135.43352478 -86.07958984 138.68310547 C-90.76437111 142.81273652 -94.96404189 145.92721686 -100.76708984 148.37060547 C-101.75708984 148.90685547 -102.74708984 149.44310547 -103.76708984 149.99560547 C-107.39897438 151.66021921 -110.87151546 152.49745949 -114.76708984 153.37060547 C-114.76708984 150.73060547 -114.76708984 148.09060547 -114.76708984 145.37060547 C-114.10708984 145.37060547 -113.44708984 145.37060547 -112.76708984 145.37060547 C-112.37521484 144.50435547 -111.98333984 143.63810547 -111.57958984 142.74560547 C-109.76708984 139.37060547 -109.76708984 139.37060547 -107.14208984 136.55810547 C-104.15669444 132.55139059 -103.64158682 129.3010814 -103.76708984 124.37060547 C-104.0574027 123.02724873 -104.39223539 121.69286604 -104.76708984 120.37060547 C-105.27537116 118.07936858 -105.77190478 115.78579875 -106.26708984 113.49169922 C-106.77315934 111.20218552 -106.77315934 111.20218552 -107.76708984 108.37060547 C-107.80874747 106.37103936 -107.80874747 104.37017158 -107.76708984 102.37060547 C-107.76708984 98.95961379 -108.2585439 95.73972233 -108.76708984 92.37060547 C-105.37258529 92.37060547 -103.42767922 92.62402583 -100.28271484 93.57763672 C-99.42935547 93.83480469 -98.57599609 94.09197266 -97.69677734 94.35693359 C-96.81248047 94.62957031 -95.92818359 94.90220703 -95.01708984 95.18310547 C-94.14826172 95.44414062 -93.27943359 95.70517578 -92.38427734 95.97412109 C-88.28970468 97.21909251 -84.28570533 98.53617874 -80.31396484 100.13232422 C-76.86350095 101.74232637 -76.86350095 101.74232637 -73.76708984 100.37060547 C-74.34161731 96.43984903 -74.34161731 96.43984903 -76.76708984 93.37060547 C-76.89728516 92.74541016 -77.02748047 92.12021484 -77.16162109 91.47607422 C-77.96047027 88.69814065 -79.32688851 87.61627411 -81.45458984 85.68310547 C-84.40040862 82.86353606 -86.75627955 80.1179653 -88.95458984 76.68310547 C-93.00862245 70.37442371 -96.75641271 67.19316457 -103.62255859 64.32373047 C-108.01199295 62.37287076 -110.5482631 59.98265697 -112.76708984 55.80810547 C-114.85050419 52.22723706 -116.1518753 51.17821274 -119.76708984 49.37060547 C-120.75708984 48.38060547 -120.75708984 48.38060547 -121.76708984 47.37060547 C-124.92165793 47.04646362 -124.92165793 47.04646362 -127.21240234 49.45263672 Z " fill="#38114A" transform="translate(472.76708984375,168.62939453125)"/>
<path d="M0 0 C0.66 0.33 1.32 0.66 2 1 C1.67 4.63 1.34 8.26 1 12 C2.98 12 4.96 12 7 12 C7 12.66 7 13.32 7 14 C9.6956957 12.45960246 12.1399776 10.8873351 14.5625 8.9375 C17.82238372 6.34631038 19.80391145 5 24 5 C23.67 8.63 23.34 12.26 23 16 C24.32 16.66 25.64 17.32 27 18 C29.50373211 20.45309483 29.97283471 21.70009522 30.29296875 25.234375 C30.25816406 26.39453125 30.22335938 27.5546875 30.1875 28.75 C30.14689453 30.50570313 30.14689453 30.50570313 30.10546875 32.296875 C30.07066406 33.18890625 30.03585938 34.0809375 30 35 C29.34 35 28.68 35 28 35 C28 36.98 28 38.96 28 41 C25.43737294 40.6465342 24.22529498 40.22529498 22.375 38.375 C21 36 21 36 20.1875 32.4375 C19.31506259 28.74017172 19.31506259 28.74017172 15.875 27.0625 C14.92625 26.711875 13.9775 26.36125 13 26 C12.855625 26.61875 12.71125 27.2375 12.5625 27.875 C12 30 12 30 11 32 C9.865625 32.53625 8.73125 33.0725 7.5625 33.625 C5.20891613 34.88825012 4.20410677 35.51071601 3.1640625 38.00390625 C2.7299278 39.99309719 2.36132232 41.99630349 2 44 C1.01 44.495 1.01 44.495 0 45 C-0.40324295 47.53595008 -0.70129738 50.01037341 -0.9375 52.5625 C-1.56666396 58.48373409 -2.49738512 63.53974935 -5 69 C-5.66 69 -6.32 69 -7 69 C-7.0825 69.94875 -7.165 70.8975 -7.25 71.875 C-7.93991766 76.88977467 -10.00337644 81.38454926 -12 86 C-14.93023384 83.3245691 -15.91363084 81.37387224 -16.16796875 77.328125 C-16.20510054 71.47615477 -16.00574682 66.51580376 -14 61 C-14.66 60.67 -15.32 60.34 -16 60 C-16.13277344 60.85464844 -16.26554688 61.70929688 -16.40234375 62.58984375 C-16.66724609 64.24693359 -16.66724609 64.24693359 -16.9375 65.9375 C-17.11152344 67.03964844 -17.28554687 68.14179688 -17.46484375 69.27734375 C-18 72 -18 72 -19 73 C-19.37363202 76.36268815 -19.41914012 79.64150544 -19 83 C-17.06283962 85.35631825 -17.06283962 85.35631825 -15 87 C-15.25 89.25 -15.25 89.25 -16 91 C-14.68 91.66 -13.36 92.32 -12 93 C-12 93.66 -12 94.32 -12 95 C-11.05125 95.226875 -10.1025 95.45375 -9.125 95.6875 C-6 97 -6 97 -4.8515625 99.25390625 C-4.01457207 101.95300843 -3.59389014 104.44975168 -3.25 107.25 C-2.3872843 112.45434999 -0.55499981 115.79479242 2.66015625 119.9296875 C4.18537457 122.28643884 4.61057536 124.24037357 5 127 C3.68 126.67 2.36 126.34 1 126 C1.44472656 126.78503906 1.88945312 127.57007813 2.34765625 128.37890625 C7.79838606 138.49814269 7.79838606 138.49814269 6 145 C6.33 145.99 6.66 146.98 7 148 C7.66 148 8.32 148 9 148 C11.72560688 152.79414781 13.52691812 156.33563017 13 162 C13 162.99 13 163.98 13 165 C13.721875 165.5775 14.44375 166.155 15.1875 166.75 C19.34436302 170.07549042 22.31138346 173.93415039 24 179 C24.61875 179.28875 25.2375 179.5775 25.875 179.875 C28 181 28 181 29.375 183.4375 C31.42069911 186.66341013 33.53531653 187.53713364 37 189 C37 189.99 37 190.98 37 192 C39.46800047 190.84826645 41.04783565 189.95216435 43 188 C43.64767793 185.42938689 43.64767793 185.42938689 44 183 C44.99 183 45.98 183 47 183 C47 181.35 47 179.7 47 178 C49.31 177.67 51.62 177.34 54 177 C54 181.29 54 185.58 54 190 C56.4224537 189.06271398 56.4224537 189.06271398 57.4375 185.5 C57.953125 184.345 58.46875 183.19 59 182 C59.99 181.67 60.98 181.34 62 181 C63.24498609 178.67730041 63.24498609 178.67730041 64.1875 175.9375 C64.70376953 174.55884766 64.70376953 174.55884766 65.23046875 173.15234375 C65.48441406 172.44207031 65.73835938 171.73179687 66 171 C68.45237974 171.96473782 70.84270796 172.91910695 73.1875 174.125 C74.96474133 175.14491636 74.96474133 175.14491636 77 175 C77.19658808 173.58456585 77.38187546 172.16755969 77.5625 170.75 C77.66691406 169.96109375 77.77132812 169.1721875 77.87890625 168.359375 C78.00027349 165.99467126 77.69633257 164.2488963 77 162 C78.859375 162.1171875 78.859375 162.1171875 81 163 C82.203125 165.6328125 82.203125 165.6328125 83.25 169.125 C85.68545325 176.69261567 89.21982518 183.34045729 93.06835938 190.26855469 C94.38334103 192.7124357 95.52299786 195.23158874 96.6875 197.75 C99.99224504 204.5076019 104.34714644 210.55329282 108.68237305 216.67871094 C109.23836182 217.46793945 109.79435059 218.25716797 110.3671875 219.0703125 C110.87362793 219.77945801 111.38006836 220.48860352 111.90185547 221.21923828 C113 223 113 223 113 225 C113.66 225 114.32 225 115 225 C116.41628209 227.03590551 117.71723916 229.06929864 119 231.1875 C123.56007505 238.50103995 128.61035213 245.28139785 134 252 C134.5671875 252.7115625 135.134375 253.423125 135.71875 254.15625 C138.65410384 257.71614721 141.84099739 260.70412754 145.38671875 263.65234375 C147.39207546 265.32752066 149.25901713 267.05009919 151 269 C151 269.66 151 270.32 151 271 C151.56847656 271.25652344 152.13695312 271.51304687 152.72265625 271.77734375 C155.2475633 273.13291134 157.23762462 274.72617907 159.4375 276.5625 C171.81780583 286.60107643 185.47035187 296.26768992 200.44140625 301.89453125 C202.9889241 302.99521453 204.79637599 304.33853745 207 306 C210.57997259 307.57184105 214.29460653 308.75702176 218 310 C218.90105469 310.3196875 219.80210937 310.639375 220.73046875 310.96875 C256.23087236 322.85012665 294.99002014 324.25459807 331.41748047 316.32128906 C335.34820142 315.47066465 338.94838234 314.75395034 343 315 C339.99796896 317.44977061 337.09058875 318.93683407 333.5 320.375 C329.22772978 322.09953835 324.98216534 323.86680958 320.75 325.6875 C316.19037505 327.5947941 311.81013819 328.90295094 307 330 C306.24203125 330.30808594 305.4840625 330.61617187 304.703125 330.93359375 C275.99633085 342.25867294 243.28803376 341.35334654 213 341 C212.1121582 340.99274902 211.22431641 340.98549805 210.30957031 340.97802734 C187.19911064 340.68070569 163.58284459 334.27587681 141.90478516 326.66650391 C140.63578273 326.22246691 139.36459626 325.78462268 138.09130859 325.35302734 C127.13908002 321.62999255 117.13784893 316.61852091 106.99731445 311.0769043 C104.36195794 309.65598295 101.68149631 308.33134599 99 307 C97.18235521 306.03041708 95.36972912 305.05136122 93.5625 304.0625 C92.23412109 303.33740234 92.23412109 303.33740234 90.87890625 302.59765625 C89.45384766 301.80681641 89.45384766 301.80681641 88 301 C86.8553125 300.39027344 85.710625 299.78054688 84.53125 299.15234375 C80.86413029 297.04976836 77.9563785 294.43490969 74.9375 291.5 C71.99236687 288.65935911 69.09474609 285.97726468 65.62890625 283.78125 C64.76136719 283.1934375 63.89382812 282.605625 63 282 C63 281.34 63 280.68 63 280 C62.13375 279.59394531 62.13375 279.59394531 61.25 279.1796875 C49.7373491 273.14354067 37.95142152 260.916669 31 250 C31 249.34 31 248.68 31 248 C30.34 248 29.68 248 29 248 C27.55473264 246.26451831 26.1912778 244.46024037 24.875 242.625 C23.78832031 241.12839844 23.78832031 241.12839844 22.6796875 239.6015625 C21 237 21 237 21 235 C20.34 235 19.68 235 19 235 C19 234.01 19 233.02 19 232 C18.34 232 17.68 232 17 232 C15.4921875 230.13671875 15.4921875 230.13671875 13.875 227.6875 C13.33617187 226.88699219 12.79734375 226.08648438 12.2421875 225.26171875 C11 223 11 223 11 220 C10.34 220 9.68 220 9 220 C8.66266846 219.35973877 8.32533691 218.71947754 7.9777832 218.05981445 C6.43207328 215.13896482 4.87245819 212.22576306 3.3125 209.3125 C2.78205078 208.30509766 2.25160156 207.29769531 1.70507812 206.25976562 C-1.42641897 200.40043763 -1.42641897 200.40043763 -5.68359375 195.35546875 C-8.96988509 192.01375934 -9.97150888 188.40596116 -11.375 184 C-11.80727905 182.69724121 -11.80727905 182.69724121 -12.24829102 181.36816406 C-12.85827744 179.52782695 -13.46272825 177.68564704 -14.06201172 175.84179688 C-15.00668692 172.97974083 -15.99819967 170.13800827 -17.00390625 167.296875 C-17.64875594 165.4480277 -18.29329635 163.5990725 -18.9375 161.75 C-19.24413574 160.8940625 -19.55077148 160.038125 -19.86669922 159.15625 C-21.43395363 154.56546679 -22.13458432 150.96542551 -21.91699219 146.05371094 C-22.0501162 142.76006637 -23.18619655 139.82926519 -24.19384766 136.7109375 C-29.34239654 119.39734369 -29.36939164 100.65241944 -29.3125 82.75 C-29.30995209 81.83436279 -29.30740417 80.91872559 -29.30477905 79.9753418 C-29.29211446 77.33232788 -29.26860778 74.68974165 -29.23828125 72.046875 C-29.23071808 71.2666095 -29.22315491 70.48634399 -29.21536255 69.68243408 C-29.09928627 62.82737737 -28.56152766 56.01476417 -27.0625 49.3125 C-26.22991154 45.38485442 -25.67468634 41.48481659 -25.1875 37.5 C-24.38044024 31.6310614 -23.07886639 26.02092953 -21.5 20.3125 C-21.28625732 19.53390625 -21.07251465 18.7553125 -20.85229492 17.953125 C-19.88540851 14.57293481 -18.96398245 11.94597367 -17 9 C-16 10 -16 10 -15.9375 12.5625 C-15.958125 13.366875 -15.97875 14.17125 -16 15 C-15.34 15 -14.68 15 -14 15 C-13.74992188 14.43539063 -13.49984375 13.87078125 -13.2421875 13.2890625 C-11.81096116 10.6516454 -10.1145606 8.61982498 -8.125 6.375 C-7.44695312 5.59898437 -6.76890625 4.82296875 -6.0703125 4.0234375 C-4.08909508 2.08707784 -2.60063884 0.92491339 0 0 Z " fill="#E252E1" transform="translate(181,328)"/>
<path d="M0 0 C0.69107849 0.03829926 1.38215698 0.07659851 2.09417725 0.11605835 C10.4379641 0.60342266 18.40672104 1.70411846 26.54418945 3.61694336 C29.50233555 4.28480597 32.43505785 4.76956267 35.4375 5.1875 C42.69865786 6.33913525 49.6359629 8.55002154 56.64697266 10.7109375 C59.62868432 11.61774292 62.62575974 12.46565569 65.625 13.3125 C65.625 13.6425 65.625 13.9725 65.625 14.3125 C63.76705811 14.342229 63.76705811 14.342229 61.87158203 14.37255859 C57.18586075 14.44980994 52.50040303 14.53832005 47.81494141 14.62988281 C45.8039274 14.66768744 43.79285683 14.70261527 41.78173828 14.734375 C18.47862058 14.79192099 18.47862058 14.79192099 -4.1640625 19.59765625 C-6.51589894 20.35805566 -8.81770482 20.81648367 -11.25 21.25 C-17.17143928 22.39225295 -22.71714877 24.24104627 -28.375 26.3125 C-29.45467041 26.70284424 -29.45467041 26.70284424 -30.55615234 27.10107422 C-47.36955195 33.25011369 -62.44783606 41.63592283 -77.125 51.8515625 C-79.375 53.3125 -79.375 53.3125 -82.375 54.3125 C-82.705 55.3025 -83.035 56.2925 -83.375 57.3125 C-85.30859375 59.0390625 -85.30859375 59.0390625 -87.8125 60.9375 C-95.50819746 66.94014402 -102.70976978 73.19882462 -109 80.68359375 C-110.375 82.3125 -110.375 82.3125 -112.375 84.3125 C-113.695 84.3125 -115.015 84.3125 -116.375 84.3125 C-116.375 84.9725 -116.375 85.6325 -116.375 86.3125 C-116.96152344 86.56257813 -117.54804688 86.81265625 -118.15234375 87.0703125 C-120.66915569 88.47689632 -122.08366201 89.98943706 -123.9375 92.1875 C-124.51628906 92.86554688 -125.09507812 93.54359375 -125.69140625 94.2421875 C-127.42144093 96.27175621 -127.42144093 96.27175621 -128.734375 98.5625 C-130.375 100.3125 -130.375 100.3125 -133.01171875 100.6328125 C-134.01847656 100.56835938 -135.02523437 100.50390625 -136.0625 100.4375 C-144.40446775 100.19657674 -150.12762958 101.3783521 -156.75 106.74609375 C-159.85766663 109.74170509 -160.25761494 112.75492094 -161.125 116.875 C-163.39086103 126.18435151 -168.66776806 135.47534589 -175.375 142.3125 C-176.365 142.6425 -177.355 142.9725 -178.375 143.3125 C-178.705 142.3225 -179.035 141.3325 -179.375 140.3125 C-182.73041397 139.65444794 -185.95030849 139.16824622 -189.375 139.3125 C-190.48875 140.488125 -190.48875 140.488125 -191.625 141.6875 C-196.21398569 146.06789543 -202.26392265 145.22153674 -208.375 145.3125 C-206.56196948 140.68927218 -204.82797026 136.98824253 -201.375 133.3125 C-200.715 133.3125 -200.055 133.3125 -199.375 133.3125 C-199.42720703 132.45978516 -199.42720703 132.45978516 -199.48046875 131.58984375 C-199.67730592 125.97529774 -198.92995317 122.31594995 -196.375 117.3125 C-197.035 117.3125 -197.695 117.3125 -198.375 117.3125 C-198.601875 117.89 -198.82875 118.4675 -199.0625 119.0625 C-200.375 121.3125 -200.375 121.3125 -202.625 123.0625 C-205.11493662 125.09972087 -206.5404784 126.7887028 -208.375 129.375 C-211.22250029 133.26321105 -213.54495809 135.7835202 -218.46484375 136.703125 C-220.42790647 136.9653267 -222.40157758 137.14526081 -224.375 137.3125 C-224.375 134.3425 -224.375 131.3725 -224.375 128.3125 C-225.798125 128.621875 -227.22125 128.93125 -228.6875 129.25 C-229.48800781 129.42402344 -230.28851563 129.59804688 -231.11328125 129.77734375 C-233.520401 130.31136159 -233.520401 130.31136159 -236.375 131.3125 C-236.1875 129.4375 -236.1875 129.4375 -235.375 127.3125 C-232.8125 126.0625 -232.8125 126.0625 -230.375 125.3125 C-230.375 124.6525 -230.375 123.9925 -230.375 123.3125 C-229.88 122.838125 -229.385 122.36375 -228.875 121.875 C-227.02873409 120.31280058 -227.02873409 120.31280058 -227.375 117.3125 C-228.426875 118.3025 -228.426875 118.3025 -229.5 119.3125 C-232.80960229 121.61483203 -234.43725823 121.67880156 -238.375 121.3125 C-236.90557849 112.57875527 -228.87191839 104.44461804 -223.3984375 97.78125 C-221.96294729 96.02984109 -220.55400521 94.25652084 -219.1640625 92.46875 C-218.09285156 91.09203125 -218.09285156 91.09203125 -217 89.6875 C-216.35289062 88.84960938 -215.70578125 88.01171875 -215.0390625 87.1484375 C-214.48992187 86.54257813 -213.94078125 85.93671875 -213.375 85.3125 C-212.715 85.3125 -212.055 85.3125 -211.375 85.3125 C-211.11759033 84.72984375 -210.86018066 84.1471875 -210.5949707 83.546875 C-209.26921882 81.11876188 -207.81517334 79.50938292 -205.85546875 77.5625 C-205.16259766 76.8715625 -204.46972656 76.180625 -203.75585938 75.46875 C-203.03205078 74.7571875 -202.30824219 74.045625 -201.5625 73.3125 C-200.85029297 72.6009375 -200.13808594 71.889375 -199.40429688 71.15625 C-189.47790345 61.3125 -189.47790345 61.3125 -186.375 61.3125 C-186.18035156 60.75304687 -185.98570312 60.19359375 -185.78515625 59.6171875 C-183.78852271 56.35399141 -180.91555383 54.55386477 -177.8125 52.4375 C-177.18351807 51.99841309 -176.55453613 51.55932617 -175.90649414 51.10693359 C-171.70612187 48.18619836 -167.45647089 45.34068388 -163.17578125 42.5390625 C-161.22506653 41.2550904 -161.22506653 41.2550904 -159 39.3125 C-151.69889112 33.74975038 -143.01426031 30.13174687 -134.72363281 26.28540039 C-130.39301495 24.27517048 -126.12107312 22.18539906 -121.875 20 C-117.94950936 18.02397494 -114.1208581 16.38102949 -109.921875 15.09375 C-107.19879548 14.25844953 -104.50560309 13.34579696 -101.80957031 12.42749023 C-96.05018594 10.47366485 -90.32513216 8.59457267 -84.375 7.3125 C-82.87646484 6.97798828 -82.87646484 6.97798828 -81.34765625 6.63671875 C-78.36257026 5.98194736 -75.37405826 5.34870002 -72.38163757 4.72846985 C-70.49915267 4.33823647 -68.6174664 3.94415605 -66.73583984 3.54980469 C-56.99415713 1.60676048 -47.415321 0.51755423 -37.5 0 C-36.35661163 -0.06312881 -36.35661163 -0.06312881 -35.19012451 -0.12753296 C-23.41933497 -0.75160546 -11.7655498 -0.69027422 0 0 Z " fill="#E252E1" transform="translate(430.375,154.6875)"/>
<path d="M0 0 C0.69107849 0.03829926 1.38215698 0.07659851 2.09417725 0.11605835 C10.4379641 0.60342266 18.40672104 1.70411846 26.54418945 3.61694336 C29.50233555 4.28480597 32.43505785 4.76956267 35.4375 5.1875 C42.69865786 6.33913525 49.6359629 8.55002154 56.64697266 10.7109375 C59.62868432 11.61774292 62.62575974 12.46565569 65.625 13.3125 C65.625 13.6425 65.625 13.9725 65.625 14.3125 C63.76705811 14.342229 63.76705811 14.342229 61.87158203 14.37255859 C57.18586075 14.44980994 52.50040303 14.53832005 47.81494141 14.62988281 C45.8039274 14.66768744 43.79285683 14.70261527 41.78173828 14.734375 C30.20441723 14.9193347 18.82353193 15.41012192 7.33544922 16.89697266 C4.05483321 17.26436366 0.92111441 17.39154505 -2.375 17.3125 C-0.44245228 15.2879262 1.25658688 13.89144208 3.625 12.3125 C-0.79902831 12.24227733 -5.05264541 12.25124091 -9.4453125 12.78515625 C-16.09575583 13.56378847 -22.77535974 13.69408365 -29.46289062 13.91796875 C-30.45353516 13.95535156 -31.44417969 13.99273437 -32.46484375 14.03125 C-33.80857056 14.07668945 -33.80857056 14.07668945 -35.17944336 14.12304688 C-37.41778775 14.18028383 -37.41778775 14.18028383 -39.375 15.3125 C-37.725 15.6425 -36.075 15.9725 -34.375 16.3125 C-35.55960451 20.75476692 -36.46065712 22.87907192 -40.375 25.3125 C-42.49609375 25.97265625 -42.49609375 25.97265625 -44.8125 26.375 C-45.69164062 26.53355469 -46.57078125 26.69210938 -47.4765625 26.85546875 C-49.46833344 27.16953506 -51.46348047 27.46268275 -53.4609375 27.73828125 C-60.5080191 28.71941246 -66.96488579 30.27697149 -73.6953125 32.60546875 C-76.375 33.3125 -76.375 33.3125 -79.375 32.3125 C-79.705 31.6525 -80.035 30.9925 -80.375 30.3125 C-82.61862573 30.0840451 -82.61862573 30.0840451 -84.5 32.3125 C-85.11875 32.9725 -85.7375 33.6325 -86.375 34.3125 C-86.375 33.6525 -86.375 32.9925 -86.375 32.3125 C-87.2 32.76625 -88.025 33.22 -88.875 33.6875 C-92.10496369 35.187126 -94.9677611 36.05295879 -98.40625 36.83984375 C-101.12250305 37.49196006 -103.74021258 38.3903244 -106.375 39.3125 C-106.375 39.9725 -106.375 40.6325 -106.375 41.3125 C-107.875 42.9375 -107.875 42.9375 -109.375 44.3125 C-109.045 44.9725 -108.715 45.6325 -108.375 46.3125 C-110.375 47.3125 -110.375 47.3125 -114.3125 47.5 C-120.37205119 48.10005296 -125.40726088 50.89877158 -130.375 54.3125 C-131.035 55.3025 -131.695 56.2925 -132.375 57.3125 C-133.035 57.3125 -133.695 57.3125 -134.375 57.3125 C-134.375 57.9725 -134.375 58.6325 -134.375 59.3125 C-137.375 61.3125 -137.375 61.3125 -139.3125 61.25 C-142.21432859 59.93098701 -143.54336073 57.86371184 -145.375 55.3125 C-146.695 57.6225 -148.015 59.9325 -149.375 62.3125 C-150.035 61.6525 -150.695 60.9925 -151.375 60.3125 C-153.025 63.2825 -154.675 66.2525 -156.375 69.3125 C-158.025 69.3125 -159.675 69.3125 -161.375 69.3125 C-161.375 70.3025 -161.375 71.2925 -161.375 72.3125 C-163.84300047 71.16076645 -165.42283565 70.26466435 -167.375 68.3125 C-167.75011719 68.96476562 -168.12523437 69.61703125 -168.51171875 70.2890625 C-176.8020553 84.44737026 -176.8020553 84.44737026 -183.375 87.3125 C-185.52734375 86.87890625 -185.52734375 86.87890625 -187.375 86.3125 C-187.71273437 86.92738281 -188.05046875 87.54226562 -188.3984375 88.17578125 C-189.06746094 89.38814453 -189.06746094 89.38814453 -189.75 90.625 C-190.19085938 91.42550781 -190.63171875 92.22601563 -191.0859375 93.05078125 C-192.11013335 94.84777943 -193.22767138 96.59150708 -194.375 98.3125 C-195.035 98.3125 -195.695 98.3125 -196.375 98.3125 C-196.375 97.6525 -196.375 96.9925 -196.375 96.3125 C-197.48875 96.2196875 -197.48875 96.2196875 -198.625 96.125 C-202.1935739 95.07064862 -203.29745228 93.31340227 -205.375 90.3125 C-205.4575 91.385 -205.54 92.4575 -205.625 93.5625 C-206.48912028 97.88310139 -207.37321043 98.31071043 -210.375 101.3125 C-211.92548914 103.65580499 -213.27373026 106.10018626 -214.625 108.5625 C-214.98851562 109.2121875 -215.35203125 109.861875 -215.7265625 110.53125 C-216.61533459 112.12168426 -217.49599936 113.71664448 -218.375 115.3125 C-219.035 115.3125 -219.695 115.3125 -220.375 115.3125 C-220.705 113.9925 -221.035 112.6725 -221.375 111.3125 C-223.85127099 111.95171965 -223.85127099 111.95171965 -226.375 113.3125 C-227.09227778 114.95801962 -227.75825228 116.62672289 -228.375 118.3125 C-230.8659685 120.89243166 -231.99738467 121.2907145 -235.625 121.5 C-236.98625 121.4071875 -236.98625 121.4071875 -238.375 121.3125 C-236.90557849 112.57875527 -228.87191839 104.44461804 -223.3984375 97.78125 C-221.96294729 96.02984109 -220.55400521 94.25652084 -219.1640625 92.46875 C-218.09285156 91.09203125 -218.09285156 91.09203125 -217 89.6875 C-216.35289062 88.84960938 -215.70578125 88.01171875 -215.0390625 87.1484375 C-214.48992187 86.54257813 -213.94078125 85.93671875 -213.375 85.3125 C-212.715 85.3125 -212.055 85.3125 -211.375 85.3125 C-211.11759033 84.72984375 -210.86018066 84.1471875 -210.5949707 83.546875 C-209.26921882 81.11876188 -207.81517334 79.50938292 -205.85546875 77.5625 C-205.16259766 76.8715625 -204.46972656 76.180625 -203.75585938 75.46875 C-203.03205078 74.7571875 -202.30824219 74.045625 -201.5625 73.3125 C-200.85029297 72.6009375 -200.13808594 71.889375 -199.40429688 71.15625 C-189.47790345 61.3125 -189.47790345 61.3125 -186.375 61.3125 C-186.18035156 60.75304687 -185.98570312 60.19359375 -185.78515625 59.6171875 C-183.78852271 56.35399141 -180.91555383 54.55386477 -177.8125 52.4375 C-177.18351807 51.99841309 -176.55453613 51.55932617 -175.90649414 51.10693359 C-171.70612187 48.18619836 -167.45647089 45.34068388 -163.17578125 42.5390625 C-161.22506653 41.2550904 -161.22506653 41.2550904 -159 39.3125 C-151.69889112 33.74975038 -143.01426031 30.13174687 -134.72363281 26.28540039 C-130.39301495 24.27517048 -126.12107312 22.18539906 -121.875 20 C-117.94950936 18.02397494 -114.1208581 16.38102949 -109.921875 15.09375 C-107.19879548 14.25844953 -104.50560309 13.34579696 -101.80957031 12.42749023 C-96.05018594 10.47366485 -90.32513216 8.59457267 -84.375 7.3125 C-82.87646484 6.97798828 -82.87646484 6.97798828 -81.34765625 6.63671875 C-78.36257026 5.98194736 -75.37405826 5.34870002 -72.38163757 4.72846985 C-70.49915267 4.33823647 -68.6174664 3.94415605 -66.73583984 3.54980469 C-56.99415713 1.60676048 -47.415321 0.51755423 -37.5 0 C-36.35661163 -0.06312881 -36.35661163 -0.06312881 -35.19012451 -0.12753296 C-23.41933497 -0.75160546 -11.7655498 -0.69027422 0 0 Z " fill="#EA82E9" transform="translate(430.375,154.6875)"/>
<path d="M0 0 C0.66 0.33 1.32 0.66 2 1 C1.67 4.63 1.34 8.26 1 12 C2.98 12 4.96 12 7 12 C7 12.66 7 13.32 7 14 C9.6956957 12.45960246 12.1399776 10.8873351 14.5625 8.9375 C17.82238372 6.34631038 19.80391145 5 24 5 C23.67 8.63 23.34 12.26 23 16 C24.32 16.66 25.64 17.32 27 18 C29.50373211 20.45309483 29.97283471 21.70009522 30.29296875 25.234375 C30.25816406 26.39453125 30.22335938 27.5546875 30.1875 28.75 C30.14689453 30.50570313 30.14689453 30.50570313 30.10546875 32.296875 C30.07066406 33.18890625 30.03585938 34.0809375 30 35 C29.34 35 28.68 35 28 35 C28 36.98 28 38.96 28 41 C25.43737294 40.6465342 24.22529498 40.22529498 22.375 38.375 C21 36 21 36 20.1875 32.4375 C19.31506259 28.74017172 19.31506259 28.74017172 15.875 27.0625 C14.92625 26.711875 13.9775 26.36125 13 26 C12.855625 26.61875 12.71125 27.2375 12.5625 27.875 C12 30 12 30 11 32 C9.865625 32.53625 8.73125 33.0725 7.5625 33.625 C5.20891613 34.88825012 4.20410677 35.51071601 3.1640625 38.00390625 C2.7299278 39.99309719 2.36132232 41.99630349 2 44 C1.01 44.495 1.01 44.495 0 45 C-0.40324295 47.53595008 -0.70129738 50.01037341 -0.9375 52.5625 C-1.56666396 58.48373409 -2.49738512 63.53974935 -5 69 C-5.66 69 -6.32 69 -7 69 C-7.0825 69.94875 -7.165 70.8975 -7.25 71.875 C-7.93991766 76.88977467 -10.00337644 81.38454926 -12 86 C-14.93023384 83.3245691 -15.91363084 81.37387224 -16.16796875 77.328125 C-16.20510054 71.47615477 -16.00574682 66.51580376 -14 61 C-14.66 60.67 -15.32 60.34 -16 60 C-16.66 63.96 -17.32 67.92 -18 72 C-19.485 72.495 -19.485 72.495 -21 73 C-21.13676244 79.68235971 -21.13676244 79.68235971 -20.4375 86.3125 C-19.96973876 89.18589047 -20.26015651 91.20503569 -21 94 C-20.01 94.66 -19.02 95.32 -18 96 C-18 96.66 -18 97.32 -18 98 C-17.401875 98.226875 -16.80375 98.45375 -16.1875 98.6875 C-10.63546516 102.0187209 -9.62415928 109.09306224 -7.98242188 114.94140625 C-6.56077351 119.77225021 -4.55828631 123.66557861 -2 128 C-2 128.66 -2 129.32 -2 130 C-3.65 130.33 -5.3 130.66 -7 131 C-6.195625 131.99 -5.39125 132.98 -4.5625 134 C-1.67317108 137.99119164 -1.25616233 141.13291572 -1 146 C-1.99 145.67 -2.98 145.34 -4 145 C-4.39063507 146.43333021 -4.76198474 147.87192679 -5.125 149.3125 C-5.33382812 150.11300781 -5.54265625 150.91351563 -5.7578125 151.73828125 C-6.27427334 154.28207233 -6.27427334 154.28207233 -4 157 C-4 157.99 -4 158.98 -4 160 C-4.99 160 -5.98 160 -7 160 C-8.64702112 170.06018308 -7.88087906 179.28311041 -2.8203125 188.2421875 C-1.60579641 190.84472198 -1.71888037 193.18880374 -2 196 C-3.32 196 -4.64 196 -6 196 C-9.1687544 189.19304611 -11.79989726 182.28725983 -14.2421875 175.18847656 C-14.79054254 173.60488939 -15.34616098 172.02381113 -15.90625 170.44433594 C-16.88757306 167.67546171 -17.85132263 164.90092493 -18.8125 162.125 C-19.28393433 160.80580566 -19.28393433 160.80580566 -19.76489258 159.45996094 C-21.10087409 155.54582803 -22.18163261 152.15142863 -22.01171875 147.9921875 C-21.99917921 143.72038407 -22.89670571 140.72513808 -24.19384766 136.7109375 C-29.34239654 119.39734369 -29.36939164 100.65241944 -29.3125 82.75 C-29.30995209 81.83436279 -29.30740417 80.91872559 -29.30477905 79.9753418 C-29.29211446 77.33232788 -29.26860778 74.68974165 -29.23828125 72.046875 C-29.23071808 71.2666095 -29.22315491 70.48634399 -29.21536255 69.68243408 C-29.09928627 62.82737737 -28.56152766 56.01476417 -27.0625 49.3125 C-26.22991154 45.38485442 -25.67468634 41.48481659 -25.1875 37.5 C-24.38044024 31.6310614 -23.07886639 26.02092953 -21.5 20.3125 C-21.28625732 19.53390625 -21.07251465 18.7553125 -20.85229492 17.953125 C-19.88540851 14.57293481 -18.96398245 11.94597367 -17 9 C-16 10 -16 10 -15.9375 12.5625 C-15.958125 13.366875 -15.97875 14.17125 -16 15 C-15.34 15 -14.68 15 -14 15 C-13.74992188 14.43539063 -13.49984375 13.87078125 -13.2421875 13.2890625 C-11.81096116 10.6516454 -10.1145606 8.61982498 -8.125 6.375 C-7.44695312 5.59898437 -6.76890625 4.82296875 -6.0703125 4.0234375 C-4.08909508 2.08707784 -2.60063884 0.92491339 0 0 Z " fill="#E250E1" transform="translate(181,328)"/>
<path d="M0 0 C3.20521879 0.30237913 6.25848553 0.82038602 9.38671875 1.578125 C13.13359944 2.1830026 16.54560484 1.56752294 20.28125 1.05859375 C23.37776819 0.99185844 25.26772438 1.5708842 28 3 C28.75 5 28.75 5 29 8 C29.18712138 9.77087338 29.37465032 11.54170373 29.5625 13.3125 C29.71074489 14.87477304 29.85737588 16.4372038 30 18 C30.70125 17.649375 31.4025 17.29875 32.125 16.9375 C35.58229692 15.81012057 37.52082298 16.01675432 41 17 C42.875 18.25 42.875 18.25 44 20 C44.1875 22.6875 44.1875 22.6875 44 25 C44.78375 25.12375 45.5675 25.2475 46.375 25.375 C49 26 49 26 51 28 C51.38079379 31.61754103 50.84651134 33.88401212 49 37 C49.53625 37.556875 50.0725 38.11375 50.625 38.6875 C52 41 52 41 51.375 43.625 C50 46 50 46 47 48 C46.01 48 45.02 48 44 48 C43.95875 48.886875 43.9175 49.77375 43.875 50.6875 C42.96171761 54.14492619 41.88865678 56.09635465 39.015625 58.29296875 C34.65187416 59.8236643 30.153454 57.49323573 26 56 C23.62167562 55.22504037 22.46157082 54.87336626 20.03515625 55.5390625 C16.04097337 56.44369509 12.36308136 54.03186165 9 52 C6.59790018 49.01557295 6 47.82021762 6 44 C4.9275 44.0825 3.855 44.165 2.75 44.25 C-1 44 -1 44 -3.3125 42.375 C-6.15128676 38.37967048 -7.34781876 33.82614118 -8 29 C-7.505 27.515 -7.505 27.515 -7 26 C-7.33 25.67 -7.66 25.34 -8 25 C-8.36084294 21.75241358 -8.19327801 20.30924481 -6.4375 17.5 C-4.68867986 15.12315616 -4.68867986 15.12315616 -5.5625 12.6875 C-6.24116429 8.5185622 -4.18128145 5.49159186 -2 2 C-1.34 1.34 -0.68 0.68 0 0 Z " fill="#250934" transform="translate(582,265)"/>
<path d="M0 0 C0.495 0.495 0.495 0.495 1 1 C2.6396875 1.0928125 2.6396875 1.0928125 4.3125 1.1875 C8 2 8 2 10.4375 4.9375 C12 8 12 8 12 10 C13.03060547 9.94779297 13.03060547 9.94779297 14.08203125 9.89453125 C14.98308594 9.86746094 15.88414062 9.84039062 16.8125 9.8125 C17.70582031 9.77769531 18.59914063 9.74289063 19.51953125 9.70703125 C22 10 22 10 23.8046875 11.3828125 C25 13 25 13 25.3125 15.0625 C25.539375 15.701875 25.76625 16.34125 26 17 C26.969375 17.226875 27.93875 17.45375 28.9375 17.6875 C29.948125 18.120625 30.95875 18.55375 32 19 C32.86490283 21.3049441 33.24587257 23.4697322 33.578125 25.90625 C33.84140322 28.21040713 33.84140322 28.21040713 36 30 C36 32.4375 36 32.4375 35 35 C30.13793103 38 30.13793103 38 27 38 C27 38.99 27 39.98 27 41 C23.69818239 43.83012938 22.03316905 45.07653104 17.625 44.75 C16.75875 44.5025 15.8925 44.255 15 44 C14.67 43.01 14.34 42.02 14 41 C12.72125 41.185625 11.4425 41.37125 10.125 41.5625 C6.25 42.125 6.25 42.125 4 41 C4 40.34 4 39.68 4 39 C3.21625 38.9175 2.4325 38.835 1.625 38.75 C-1 38 -1 38 -2.3125 35.9375 C-2.6528125 34.9784375 -2.6528125 34.9784375 -3 34 C-3.86625 34.0825 -4.7325 34.165 -5.625 34.25 C-9 34 -9 34 -11.875 32.0625 C-15.80203199 29.47065889 -18.36042561 29.31997065 -23 29 C-23 28.34 -23 27.68 -23 27 C-23.66 27.103125 -24.32 27.20625 -25 27.3125 C-29.45039367 26.84891733 -32.37202869 24.49423028 -36 22 C-37.14550413 21.24949729 -38.29129952 20.49943878 -39.4375 19.75 C-42 18 -42 18 -43 17 C-43.04092937 14.66702567 -43.04241723 12.33294775 -43 10 C-13.04431818 -0.50170455 -13.04431818 -0.50170455 0 0 Z " fill="#230831" transform="translate(444,175)"/>
<path d="M0 0 C4.32340078 0.83330854 8.26115627 1.64478667 12.25 3.5625 C15.60751371 5.15167122 18.62175848 5.19163361 22.3125 5.3125 C28.96041827 5.66644009 33.90916727 7.6676209 39 12 C39 12.66 39 13.32 39 14 C39.54269531 14.06574219 40.08539062 14.13148438 40.64453125 14.19921875 C44.02514153 15.34851412 46.06064554 17.41711736 48.6875 19.8125 C50.14736328 21.12154297 50.14736328 21.12154297 51.63671875 22.45703125 C53.94976527 24.94594577 54.35535447 25.8476125 55 29 C55.99 29.33 56.98 29.66 58 30 C59.75 32.875 59.75 32.875 61 36 C60.67 36.99 60.34 37.98 60 39 C58.68 39 57.36 39 56 39 C56 39.66 56 40.32 56 41 C57.32 41.33 58.64 41.66 60 42 C60 42.99 60 43.98 60 45 C60.66 45 61.32 45 62 45 C62 46.32 62 47.64 62 49 C62.66 49 63.32 49 64 49 C64 49.99 64 50.98 64 52 C64.66 52 65.32 52 66 52 C67.42258812 55.82320557 68.24042276 58.91281305 68 63 C63.18706269 63.56622792 60.75523546 61.90177285 57 59 C56.67 58.34 56.34 57.68 56 57 C53.98330173 55.86649466 53.98330173 55.86649466 52 55 C52 54.01 52 53.02 52 52 C50.64455078 51.90912109 50.64455078 51.90912109 49.26171875 51.81640625 C48.08222656 51.73261719 46.90273438 51.64882812 45.6875 51.5625 C44.51574219 51.48128906 43.34398437 51.40007812 42.13671875 51.31640625 C39 51 39 51 36 50 C36 49.34 36 48.68 36 48 C35.46632813 47.92394531 34.93265625 47.84789062 34.3828125 47.76953125 C31.03776273 46.68924468 28.67971121 44.7927562 25.875 42.6875 C24.29332031 41.51767578 24.29332031 41.51767578 22.6796875 40.32421875 C20.18284482 38.15858989 19.32395925 36.9001012 18 34 C17.01 33.525625 16.02 33.05125 15 32.5625 C12 31 12 31 10.625 28.3125 C10.41875 27.549375 10.2125 26.78625 10 26 C9.34 26 8.68 26 8 26 C8 25.01 8 24.02 8 23 C7.34 23 6.68 23 6 23 C6 22.01 6 21.02 6 20 C5.34 20 4.68 20 4 20 C3.96132813 19.12988281 3.96132813 19.12988281 3.921875 18.2421875 C3.51287174 12.60909719 2.21929017 9.72162558 -1 5 C-0.75 2.125 -0.75 2.125 0 0 Z " fill="#230831" transform="translate(515,196)"/>
<path d="M0 0 C2.31 1.65 4.62 3.3 7 5 C7 4.01 7 3.02 7 2 C12.18554688 0.87646484 12.18554688 0.87646484 15 1 C17.75998099 3.34598384 18.81465853 4.86432922 19.3984375 8.44140625 C19 11 19 11 16.8828125 13.01953125 C15.51769531 13.90705078 15.51769531 13.90705078 14.125 14.8125 C13.22007812 15.41707031 12.31515625 16.02164063 11.3828125 16.64453125 C9 18 9 18 7 18 C6.90203125 18.5775 6.8040625 19.155 6.703125 19.75 C4.92386683 25.44362614 -1.14301764 30.80461687 -6 34 C-8.8125 34.75 -8.8125 34.75 -11 35 C-11.33 34.01 -11.66 33.02 -12 32 C-13.80400218 33.8643367 -15.59263982 35.74015411 -17.375 37.625 C-18.13683594 38.40810547 -18.13683594 38.40810547 -18.9140625 39.20703125 C-22.1166951 42.62036336 -23.80428714 45.37311112 -25 50 C-25.65411685 51.67163195 -26.31653318 53.34015202 -27 55 C-25.35 55.33 -23.7 55.66 -22 56 C-22 56.33 -22 56.66 -22 57 C-24.31 57 -26.62 57 -29 57 C-28.67 54.69 -28.34 52.38 -28 50 C-28.66 50 -29.32 50 -30 50 C-30.226875 50.5775 -30.45375 51.155 -30.6875 51.75 C-32 54 -32 54 -34.25 55.75 C-36.73993662 57.78722087 -38.1654784 59.4762028 -40 62.0625 C-42.84750029 65.95071105 -45.16995809 68.4710202 -50.08984375 69.390625 C-52.05290647 69.6528267 -54.02657758 69.83276081 -56 70 C-56 67.03 -56 64.06 -56 61 C-57.423125 61.309375 -58.84625 61.61875 -60.3125 61.9375 C-61.11300781 62.11152344 -61.91351563 62.28554688 -62.73828125 62.46484375 C-65.145401 62.99886159 -65.145401 62.99886159 -68 64 C-67.8125 62.125 -67.8125 62.125 -67 60 C-64.4375 58.75 -64.4375 58.75 -62 58 C-62 57.34 -62 56.68 -62 56 C-61.2884375 55.4121875 -61.2884375 55.4121875 -60.5625 54.8125 C-58.65307276 52.9536769 -58.65307276 52.9536769 -58.6875 49.5 C-58.460625 48.345 -58.23375 47.19 -58 46 C-54.9375 44.0625 -54.9375 44.0625 -52 43 C-52 44.65 -52 46.3 -52 48 C-51.34 48 -50.68 48 -50 48 C-49.7525 47.31550781 -49.505 46.63101563 -49.25 45.92578125 C-47.78290648 42.49186549 -45.95200695 39.3595113 -44 36.1875 C-43.64421875 35.59001953 -43.2884375 34.99253906 -42.921875 34.37695312 C-42.00555558 32.88109586 -41.00864753 31.43522138 -40 30 C-39.34 30 -38.68 30 -38 30 C-38 27.69 -38 25.38 -38 23 C-37.01 23 -36.02 23 -35 23 C-34.525625 23.804375 -34.05125 24.60875 -33.5625 25.4375 C-32.26644144 28.1578895 -32.26644144 28.1578895 -29.8125 28.8125 C-28.9153125 28.9053125 -28.9153125 28.9053125 -28 29 C-28 29.66 -28 30.32 -28 31 C-25.45868642 28.69716746 -23.92889705 26.32686207 -22.3125 23.3125 C-21.87550781 22.50425781 -21.43851563 21.69601563 -20.98828125 20.86328125 C-20.66214844 20.24839844 -20.33601563 19.63351563 -20 19 C-19.01 19 -18.02 19 -17 19 C-13.37719196 18.26258366 -13.37719196 18.26258366 -10 17 C-9.505 15.515 -9.505 15.515 -9 14 C-8.55011719 13.56042969 -8.10023438 13.12085938 -7.63671875 12.66796875 C-5.47249201 10.46242026 -4.25555612 8.03827267 -2.8125 5.3125 C-2.28269531 4.31863281 -1.75289063 3.32476562 -1.20703125 2.30078125 C-0.80871094 1.54152344 -0.41039062 0.78226563 0 0 Z " fill="#E251E1" transform="translate(262,222)"/>
<path d="M0 0 C3 2 3 2 3.625 4.05859375 C3.74875 4.84363281 3.8725 5.62867188 4 6.4375 C4.57564542 10.07725799 5.35729236 11.48105552 8 14 C7.6875 16.1875 7.6875 16.1875 7 19 C6.87555176 22.92011962 6.88199753 26.33131936 7.5625 30.1875 C8.01849289 33.11888287 7.75363215 35.15294522 7 38 C7.99 38.66 8.98 39.32 10 40 C10 40.66 10 41.32 10 42 C10.598125 42.226875 11.19625 42.45375 11.8125 42.6875 C17.36453484 46.0187209 18.37584072 53.09306224 20.01757812 58.94140625 C21.43922649 63.77225021 23.44171369 67.66557861 26 72 C26 72.66 26 73.32 26 74 C23.525 74.495 23.525 74.495 21 75 C21.804375 75.99 22.60875 76.98 23.4375 78 C26.32682892 81.99119164 26.74383767 85.13291572 27 90 C25.515 89.505 25.515 89.505 24 89 C23.60936493 90.43333021 23.23801526 91.87192679 22.875 93.3125 C22.66617188 94.11300781 22.45734375 94.91351563 22.2421875 95.73828125 C21.72572666 98.28207233 21.72572666 98.28207233 24 101 C24 101.99 24 102.98 24 104 C23.01 104 22.02 104 21 104 C19.35297888 114.06018308 20.11912094 123.28311041 25.1796875 132.2421875 C26.39420359 134.84472198 26.28111963 137.18880374 26 140 C24.68 140 23.36 140 22 140 C18.8312456 133.19304611 16.20010274 126.28725983 13.7578125 119.18847656 C13.20945746 117.60488939 12.65383902 116.02381113 12.09375 114.44433594 C11.11242694 111.67546171 10.14867737 108.90092493 9.1875 106.125 C8.87321045 105.24553711 8.5589209 104.36607422 8.23510742 103.45996094 C6.89912591 99.54582803 5.81836739 96.15142863 5.98828125 91.9921875 C6.00082079 87.72038407 5.10329429 84.72513808 3.80615234 80.7109375 C-1.35459925 63.35630828 -1.36921766 44.56868814 -1.3125 26.625 C-1.30995209 25.70082275 -1.30740417 24.77664551 -1.30477905 23.82446289 C-1.29215905 21.16663617 -1.26867555 18.50924159 -1.23828125 15.8515625 C-1.23071808 15.06097443 -1.22315491 14.27038635 -1.21536255 13.45584106 C-1.13795648 8.8835874 -0.74297063 4.51316333 0 0 Z " fill="#EA82E9" transform="translate(153,384)"/>
<path d="M0 0 C0.77601563 0.01417969 1.55203125 0.02835937 2.3515625 0.04296875 C3.12242187 0.04941406 3.89328125 0.05585938 4.6875 0.0625 C6.95427882 0.2288336 8.84170069 0.44465791 10.9765625 1.23046875 C15.20901943 7.57915415 15.16315175 13.55299274 14.55859375 20.91015625 C13.9765625 23.23046875 13.9765625 23.23046875 10.9765625 25.23046875 C11.4715625 29.19046875 11.4715625 29.19046875 11.9765625 33.23046875 C10.6565625 34.22046875 9.3365625 35.21046875 7.9765625 36.23046875 C8.2240625 37.15859375 8.2240625 37.15859375 8.4765625 38.10546875 C9.18139405 42.51066592 9.52451877 46.78758007 8.9765625 51.23046875 C7.1640625 53.73046875 7.1640625 53.73046875 4.9765625 56.23046875 C4.14195409 58.80829867 3.48475249 61.3820298 2.8828125 64.0234375 C1.9765625 66.23046875 1.9765625 66.23046875 -0.1171875 67.53125 C-1.06078125 67.87736328 -1.06078125 67.87736328 -2.0234375 68.23046875 C-2.7865625 67.42609375 -3.5496875 66.62171875 -4.3359375 65.79296875 C-6.81774648 63.06247851 -6.81774648 63.06247851 -10.0234375 62.23046875 C-10.0234375 60.58046875 -10.0234375 58.93046875 -10.0234375 57.23046875 C-10.6834375 57.23046875 -11.3434375 57.23046875 -12.0234375 57.23046875 C-12.0234375 56.57046875 -12.0234375 55.91046875 -12.0234375 55.23046875 C-13.3434375 55.23046875 -14.6634375 55.23046875 -16.0234375 55.23046875 C-16.2709375 54.59109375 -16.5184375 53.95171875 -16.7734375 53.29296875 C-17.82627183 51.03742966 -17.82627183 51.03742966 -20.1015625 50.6015625 C-21.05289062 50.41787109 -21.05289062 50.41787109 -22.0234375 50.23046875 C-21.73011693 23.72495501 -21.73011693 23.72495501 -14.46484375 14.18359375 C-12.74748126 11.85654431 -12.10378677 9.75935182 -11.3359375 6.98046875 C-11.08457031 6.0884375 -10.83320313 5.19640625 -10.57421875 4.27734375 C-10.39246094 3.601875 -10.21070313 2.92640625 -10.0234375 2.23046875 C-9.0746875 2.27171875 -8.1259375 2.31296875 -7.1484375 2.35546875 C-3.46914815 2.20829718 -3.30340575 0.37625664 0 0 Z " fill="#371049" transform="translate(318.0234375,372.76953125)"/>
<path d="M0 0 C-0.33 0.99 -0.66 1.98 -1 3 C1.64 3.33 4.28 3.66 7 4 C7 7 7 7 5.4375 9.3125 C3.63875284 12.67537512 4.07430808 14.38138615 5 18 C0.93795875 20.89987686 -2.58370072 23.1248094 -7.5625 23.9375 C-13.59715088 25.04228928 -17.00635593 28.59387785 -20.8125 33.1875 C-22.10521432 35.85934416 -22.10521432 35.85934416 -22.23046875 38.37109375 C-23.04614177 46.70514421 -26.52149947 50.53015292 -32.46875 55.98046875 C-35 58 -35 58 -37 58 C-37.89601934 56.54580467 -38.74212737 55.06067338 -39.5625 53.5625 C-41.77577753 50.00986039 -41.77577753 50.00986039 -45.39453125 48.1796875 C-47.63123604 47.96130058 -49.75745676 47.87541426 -52 48 C-50.92578125 45.55859375 -50.92578125 45.55859375 -49.8515625 43.1171875 C-48.91408203 40.91300388 -48.91408203 40.91300388 -48.25 38.15625 C-46.66126421 34.14469213 -44.35010231 31.68316354 -41.375 28.625 C-40.859375 28.07972656 -40.34375 27.53445313 -39.8125 26.97265625 C-38.55023605 25.64026652 -37.27628255 24.31896759 -36 23 C-35.34 23.33 -34.68 23.66 -34 24 C-34.33 24.99 -34.66 25.98 -35 27 C-28.3977382 24.29137978 -21.59347695 19.54910776 -18.625 12.9375 C-16.28604096 8.70938173 -12.78596047 7.03658885 -8.69140625 4.61328125 C-6.01414432 3.0784066 -6.01414432 3.0784066 -3.77734375 1.29296875 C-2 0 -2 0 0 0 Z " fill="#EA82E9" transform="translate(286,230)"/>
<path d="M0 0 C7.56634615 -0.37211538 7.56634615 -0.37211538 9.76171875 1.51171875 C10.17035156 2.00285156 10.57898438 2.49398437 11 3 C9.06537998 4.31674138 7.12720303 5.62825798 5.1875 6.9375 C4.10855469 7.66839844 3.02960938 8.39929688 1.91796875 9.15234375 C-1 11 -1 11 -4 12 C-4 12.66 -4 13.32 -4 14 C-5.27875 13.896875 -6.5575 13.79375 -7.875 13.6875 C-12.90233692 13.66371134 -16.30883525 15.29023146 -20.640625 17.7109375 C-24.15748111 19.63239862 -26.95850106 21 -31 21 C-31.33 22.65 -31.66 24.3 -32 26 C-32.969375 26.0825 -33.93875 26.165 -34.9375 26.25 C-39.67119101 26.8999125 -43.73984407 28.92305323 -48 31 C-48 30.34 -48 29.68 -48 29 C-48.94875 29.515625 -49.8975 30.03125 -50.875 30.5625 C-51.90625 31.036875 -52.9375 31.51125 -54 32 C-54.66 31.67 -55.32 31.34 -56 31 C-55.505 30.443125 -55.01 29.88625 -54.5 29.3125 C-52.69096735 26.52357466 -52.92390188 25.27221932 -53 22 C-52.03132641 15.86506724 -52.03132641 15.86506724 -49.44921875 13.69921875 C-43.73988628 10.33719213 -39.52155435 9.87458549 -33 10 C-33.33 11.32 -33.66 12.64 -34 14 C-32.91460937 13.44570312 -31.82921875 12.89140625 -30.7109375 12.3203125 C-29.26573404 11.58832633 -27.82041542 10.85656752 -26.375 10.125 C-25.30572266 9.57779297 -25.30572266 9.57779297 -24.21484375 9.01953125 C-18.62404889 6.19848797 -13.19766118 4.09370491 -7 3 C-7 3.99 -7 4.98 -7 6 C-6.34 6 -5.68 6 -5 6 C-4.67 5.01 -4.34 4.02 -4 3 C-1.9375 2.3125 -1.9375 2.3125 0 2 C0 1.34 0 0.68 0 0 Z " fill="#DD0EDA" transform="translate(352,197)"/>
<path d="M0 0 C-2.625 3.875 -2.625 3.875 -6 5 C-8.15058416 5.18355579 -10.30532821 5.3198987 -12.4609375 5.4296875 C-13.73710937 5.50316406 -15.01328125 5.57664063 -16.328125 5.65234375 C-18.35101278 5.76565293 -20.37382826 5.87494257 -22.39746094 5.97412109 C-24.35676681 6.0721342 -26.31514219 6.18821631 -28.2734375 6.3046875 C-30.02793213 6.3972583 -30.02793213 6.3972583 -31.81787109 6.49169922 C-35.21875714 7.03494341 -37.15666837 8.12144889 -40 10 C-40.66 10 -41.32 10 -42 10 C-42 10.66 -42 11.32 -42 12 C-43.5159375 11.62875 -43.5159375 11.62875 -45.0625 11.25 C-53.53735807 10.19253108 -64.78442674 13.69961043 -71.74609375 18.49609375 C-73.39526026 20.47406605 -73.46851106 21.76189553 -73.5 24.3125 C-73.335 25.529375 -73.17 26.74625 -73 28 C-73.67546875 28.25394531 -74.3509375 28.50789063 -75.046875 28.76953125 C-75.93890625 29.11371094 -76.8309375 29.45789063 -77.75 29.8125 C-79.07257813 30.31716797 -79.07257813 30.31716797 -80.421875 30.83203125 C-83.02960684 31.87326755 -83.02960684 31.87326755 -84.96875 33.65625 C-87.75891768 35.50205323 -89.48089694 35.11559683 -92.75 34.6875 C-93.73484375 34.56761719 -94.7196875 34.44773438 -95.734375 34.32421875 C-96.48203125 34.21722656 -97.2296875 34.11023438 -98 34 C-96.71324027 30.57978149 -95.63025894 28.51589986 -93 26 C-92.67 25.01 -92.34 24.02 -92 23 C-93.65 23.66 -95.3 24.32 -97 25 C-97 25.66 -97 26.32 -97 27 C-98.32 26.67 -99.64 26.34 -101 26 C-93.03524456 20.69016304 -84.1413825 16.75394962 -75 14 C-73.14561189 13.37449598 -71.29133396 12.7486455 -69.43896484 12.1171875 C-63.67870793 10.16103292 -57.95162342 8.282394 -52 7 C-50.50146484 6.66548828 -50.50146484 6.66548828 -48.97265625 6.32421875 C-45.32021068 5.52306365 -41.66184902 4.75698101 -38 4 C-36.07027344 3.59201172 -36.07027344 3.59201172 -34.1015625 3.17578125 C-22.76659126 0.85681992 -11.58731634 -0.0891332 0 0 Z " fill="#E24DE1" transform="translate(398,155)"/>
<path d="M0 0 C3.4557601 1.15192003 4.19828537 1.91134634 6 5 C6.38671875 7.40234375 6.38671875 7.40234375 6 10 C3.8828125 12.01953125 3.8828125 12.01953125 1.125 13.8125 C0.22007812 14.41707031 -0.68484375 15.02164063 -1.6171875 15.64453125 C-4 17 -4 17 -6 17 C-6.09796875 17.5775 -6.1959375 18.155 -6.296875 18.75 C-8.07613317 24.44362614 -14.14301764 29.80461687 -19 33 C-21.8125 33.75 -21.8125 33.75 -24 34 C-24.33 33.01 -24.66 32.02 -25 31 C-25.67095703 31.6496875 -25.67095703 31.6496875 -26.35546875 32.3125 C-31.41337785 36.97138429 -31.41337785 36.97138429 -34.5625 37.125 C-35.366875 37.08375 -36.17125 37.0425 -37 37 C-37.99 37.66 -38.98 38.32 -40 39 C-43.27066878 41.18044585 -44.25418727 41.09857402 -48 41 C-50.28484306 42.39957197 -50.28484306 42.39957197 -52 44 C-51.40114059 40.6989701 -50.30314403 38.78574977 -48.125 36.25 C-47.61195313 35.63640625 -47.09890625 35.0228125 -46.5703125 34.390625 C-45 33 -45 33 -42 33 C-42 33.99 -42 34.98 -42 36 C-39.76747199 35.11009069 -39.76747199 35.11009069 -38.5625 32.5625 C-37 30 -37 30 -34 28 C-32.453125 27.7525 -32.453125 27.7525 -30.875 27.5 C-29.451875 27.2525 -29.451875 27.2525 -28 27 C-27.67 26.34 -27.34 25.68 -27 25 C-25.948125 24.4740625 -25.948125 24.4740625 -24.875 23.9375 C-21.28895973 21.52082069 -19.26881345 18.59595948 -16.70703125 15.15234375 C-14.74085932 12.67325741 -12.53270066 10.88143478 -10 9 C-9.34 8.01 -8.68 7.02 -8 6 C-7.01 5.87625 -6.02 5.7525 -5 5.625 C-3.515 5.315625 -3.515 5.315625 -2 5 C-0.54708727 2.53744315 -0.54708727 2.53744315 0 0 Z " fill="#DE0FDB" transform="translate(275,223)"/>
<path d="M0 0 C0 1.65 0 3.3 0 5 C2.97 5 5.94 5 9 5 C7.02 7.97 5.04 10.94 3 14 C4.32 13.67 5.64 13.34 7 13 C5.55922954 16.36179774 3.75249979 18.59156268 1 21 C0.34 21 -0.32 21 -1 21 C-1 21.66 -1 22.32 -1 23 C-8.8618455 29.78192166 -16.69515658 32.99222606 -27 34 C-27.66 33.67 -28.32 33.34 -29 33 C-27.515 32.505 -27.515 32.505 -26 32 C-26 31.34 -26 30.68 -26 30 C-24.33333333 29 -22.66666667 28 -21 27 C-19.2958946 25.37163262 -17.61974559 23.71230248 -16 22 C-17.98 21.67 -19.96 21.34 -22 21 C-20.83625824 17.50877472 -19.72661289 17.15644967 -16.7421875 15.29296875 C-13.98589936 13.24738271 -11.94385353 10.65053833 -9.73828125 8.0390625 C-2.88505747 0 -2.88505747 0 0 0 Z " fill="#E24DE1" transform="translate(245,295)"/>
<path d="M0 0 C3.49526809 4.23593205 6.63507384 8.67044829 9.75 13.1875 C10.25660156 13.91130859 10.76320313 14.63511719 11.28515625 15.38085938 C11.76339844 16.07373047 12.24164063 16.76660156 12.734375 17.48046875 C13.16975586 18.10848389 13.60513672 18.73649902 14.05371094 19.38354492 C15 21 15 21 15 23 C15.66 23 16.32 23 17 23 C18.28406399 24.95224208 19.47941678 26.96340762 20.625 29 C21.25664062 30.11375 21.88828125 31.2275 22.5390625 32.375 C23.02117187 33.24125 23.50328125 34.1075 24 35 C23.01 35 22.02 35 21 35 C20.566875 34.505 20.13375 34.01 19.6875 33.5 C18.00259517 31.66781808 18.00259517 31.66781808 15 32 C14.01 32 13.02 32 12 32 C11.53335937 31.505 11.06671875 31.01 10.5859375 30.5 C9.10876485 28.79271707 9.10876485 28.79271707 6.9140625 28.8125 C6.15867187 28.874375 5.40328125 28.93625 4.625 29 C0.5167137 29.12004733 -1.80434363 28.8196968 -5 26 C-7.90940049 21.58573719 -8.31378312 18.22971874 -8 13 C-7.34 13 -6.68 13 -6 13 C-6.33 11.35 -6.66 9.7 -7 8 C-5.35 7.67 -3.7 7.34 -2 7 C-1.34 4.69 -0.68 2.38 0 0 Z " fill="#DB0ED9" transform="translate(279,530)"/>
<path d="M0 0 C2.69082872 0.17635452 5.32851446 0.61835921 8 1 C4.69536227 4.40622696 1.29224943 7.4441047 -2.4375 10.375 C-5.79477711 13.05186895 -8.55628838 15.51994616 -11.0625 19 C-12.79085689 21.16294374 -13.63920903 21.89924399 -16.3359375 22.65234375 C-18.91585206 22.93512718 -21.40572415 23.02877961 -24 23 C-25.27875 23 -26.5575 23 -27.875 23 C-28.90625 23 -29.9375 23 -31 23 C-33.31036915 23.42854995 -33.31036915 23.42854995 -35 24 C-33.6321397 18.83252775 -30.42082106 15.77627563 -26 13 C-23.55272137 12.26961064 -21.57814525 12.10523042 -19 12 C-18.91298828 11.37891357 -18.82597656 10.75782715 -18.73632812 10.11791992 C-18 8 -18 8 -16.34179688 6.91918945 C-15.64119141 6.65323975 -14.94058594 6.38729004 -14.21875 6.11328125 C-13.45949219 5.81486328 -12.70023437 5.51644531 -11.91796875 5.20898438 C-11.12003906 4.91314453 -10.32210938 4.61730469 -9.5 4.3125 C-7.92640132 3.70619421 -6.35344842 3.09820882 -4.78125 2.48828125 C-4.08064453 2.22571533 -3.38003906 1.96314941 -2.65820312 1.69262695 C-0.9942921 1.12093808 -0.9942921 1.12093808 0 0 Z " fill="#E87EE7" transform="translate(339,210)"/>
<path d="M0 0 C0.66 0.33 1.32 0.66 2 1 C2 2.65 2 4.3 2 6 C2.66 6 3.32 6 4 6 C4.433125 5.071875 4.433125 5.071875 4.875 4.125 C6 2 6 2 8 0 C8.99 0 9.98 0 11 0 C10.91825827 3.5008943 10.80549732 7.00015493 10.6875 10.5 C10.66494141 11.48226563 10.64238281 12.46453125 10.61914062 13.4765625 C10.39371503 19.62453337 9.50037151 24.36913654 7 30 C5.078125 29.62890625 5.078125 29.62890625 3 29 C1.75 26.9375 1.75 26.9375 1 25 C0.13375 25.4640625 0.13375 25.4640625 -0.75 25.9375 C-2.84904107 26.92871384 -4.75074138 27.47548801 -7 28 C-5.51551426 18.42897351 -3.06204231 9.18612693 0 0 Z " fill="#EA7DE8" transform="translate(163,337)"/>
<path d="M0 0 C0 1.65 0 3.3 0 5 C2.97 5 5.94 5 9 5 C8.06558465 6.27310312 7.12732889 7.543388 6.1875 8.8125 C5.66542969 9.52019531 5.14335937 10.22789062 4.60546875 10.95703125 C2.60927333 13.49720206 0.9063044 15.5468478 -2 17 C-4.37402501 17.07116382 -6.75000677 17.08409085 -9.125 17.0625 C-10.40632812 17.05347656 -11.68765625 17.04445313 -13.0078125 17.03515625 C-14.48894531 17.01775391 -14.48894531 17.01775391 -16 17 C-14.36091132 12.5351521 -12.4987982 10.26554499 -9 7 C-7.18037715 5.12155313 -5.36352198 3.24055833 -3.55078125 1.35546875 C-2 0 -2 0 0 0 Z " fill="#E97CE8" transform="translate(245,295)"/>
<path d="M0 0 C0.66 0 1.32 0 2 0 C2.0493651 4.94790177 2.08570269 9.89566083 2.10986328 14.84375 C2.11993317 16.52769466 2.13358988 18.21162179 2.15087891 19.89550781 C2.17508426 22.31319501 2.18647296 24.73065143 2.1953125 27.1484375 C2.20563507 27.9036972 2.21595764 28.65895691 2.22659302 29.43710327 C2.22699318 31.2929398 2.12222716 33.1481928 2 35 C1.34 35.66 0.68 36.32 0 37 C-0.9181738 29.50297498 -1.1528713 22.11097608 -1.125 14.5625 C-1.12886719 13.48806641 -1.13273438 12.41363281 -1.13671875 11.30664062 C-1.13542969 10.27861328 -1.13414062 9.25058594 -1.1328125 8.19140625 C-1.13112061 6.80223999 -1.13112061 6.80223999 -1.12939453 5.38500977 C-1 3 -1 3 0 0 Z " fill="#360F47" transform="translate(251,394)"/>
<path d="M0 0 C-0.11765727 6.58880724 -1.68961905 9.47343553 -6.30859375 14.140625 C-8.00274092 16.00301311 -8.99053903 17.70715397 -10 20 C-10.66 20 -11.32 20 -12 20 C-11.54669801 13.04936946 -8.97368719 6.61877277 -4.5234375 1.203125 C-3 0 -3 0 0 0 Z " fill="#E141E0" transform="translate(188,287)"/>
<path d="M0 0 C3.9374838 -0.02946879 7.87493856 -0.04695407 11.8125 -0.0625 C13.46282227 -0.07506836 13.46282227 -0.07506836 15.14648438 -0.08789062 C22.15732634 -0.10857157 29.03175126 0.22322023 36 1 C36 1.33 36 1.66 36 2 C27.39421862 2.87019244 18.8960185 3.12607367 10.25 3.0625 C9.0640625 3.05798828 7.878125 3.05347656 6.65625 3.04882812 C3.77077772 3.03719316 0.88541787 3.0208484 -2 3 C-1.34 2.67 -0.68 2.34 0 2 C0 1.34 0 0.68 0 0 Z " fill="#581C66" transform="translate(456,647)"/>
<path d="M0 0 C0.41906465 3.56204952 -0.03962033 5.07499563 -1.75 8.3125 C-2.4925 9.199375 -3.235 10.08625 -4 11 C-5.32 11 -6.64 11 -8 11 C-7.51282051 4.66666667 -7.51282051 4.66666667 -5.125 1.5625 C-3 0 -3 0 0 0 Z " fill="#DE14DB" transform="translate(179,355)"/>
<path d="M0 0 C-0.72008406 4.60853797 -2.31295939 8.67237409 -4 13 C-4.66 13 -5.32 13 -6 13 C-6.33 13.66 -6.66 14.32 -7 15 C-6.34 10.38 -5.68 5.76 -5 1 C-2 0 -2 0 0 0 Z " fill="#DF21DC" transform="translate(161,364)"/>
<path d="M0 0 C-4.38423952 3.44475962 -7.30835767 5.31620235 -13 5 C-13 4.34 -13 3.68 -13 3 C-13.66 2.67 -14.32 2.34 -15 2 C-13.43883181 1.66048381 -11.87598662 1.32867456 -10.3125 1 C-9.44238281 0.814375 -8.57226562 0.62875 -7.67578125 0.4375 C-5.06287036 0.01027953 -2.64186962 -0.07616201 0 0 Z " fill="#D349D4" transform="translate(524,643)"/>
<path d="M0 0 C3.21460285 0.66204635 5.81002167 1.80546637 8.6875 3.375 C9.86892578 4.00535156 9.86892578 4.00535156 11.07421875 4.6484375 C13 6 13 6 14 9 C8.40440609 7.60110152 4.29704147 4.74082545 0 1 C0 0.67 0 0.34 0 0 Z " fill="#E77FE7" transform="translate(257,620)"/>
<path d="M0 0 C0.99 0.33 1.98 0.66 3 1 C2.01 4.96 1.02 8.92 0 13 C-0.99 12.67 -1.98 12.34 -3 12 C-2.01 8.04 -1.02 4.08 0 0 Z " fill="#DF20DC" transform="translate(165,388)"/>
<path d="M0 0 C-1 3 -1 3 -3 4 C-5.6723621 4.13415472 -8.32250488 4.04318541 -11 4 C-8.07317918 1.07317918 -4.14037627 0 0 0 Z " fill="#E035DE" transform="translate(355,160)"/>
<path d="M0 0 C0.99 0.33 1.98 0.66 3 1 C2.01 2.485 2.01 2.485 1 4 C1 3.34 1 2.68 1 2 C-0.65 2.66 -2.3 3.32 -4 4 C-4 4.66 -4 5.32 -4 6 C-5.32 5.67 -6.64 5.34 -8 5 C-7.01 4.34 -6.02 3.68 -5 3 C-3.7625 2.1646875 -3.7625 2.1646875 -2.5 1.3125 C-1.675 0.879375 -0.85 0.44625 0 0 Z " fill="#E65BE4" transform="translate(305,176)"/>
<path d="M0 0 C0.99 1.32 1.98 2.64 3 4 C-1.75 6.875 -1.75 6.875 -4 8 C-3.40072174 4.64404172 -2.15377564 2.62198774 0 0 Z " fill="#DE20DC" transform="translate(227,259)"/>
</svg>
