<?xml version="1.0" standalone="no"?>
<!DOCTYPE svg PUBLIC "-//W3C//DTD SVG 20010904//EN"
 "http://www.w3.org/TR/2001/REC-SVG-20010904/DTD/svg10.dtd">
<svg version="1.0" xmlns="http://www.w3.org/2000/svg"
 width="800.000000pt" height="800.000000pt" viewBox="0 0 800.000000 800.000000"
 preserveAspectRatio="xMidYMid meet">

<g transform="translate(0.000000,800.000000) scale(0.100000,-0.100000)"
fill="#000000" stroke="none">
<path d="M3855 6429 c-44 -4 -102 -12 -130 -18 -42 -8 -29 -10 80 -8 105 2
135 6 155 20 l24 17 -24 -1 c-14 -1 -61 -5 -105 -10z"/>
<path d="M3530 6378 c-133 -33 -187 -52 -162 -56 13 -2 47 7 77 19 48 20 58
21 79 9 23 -12 29 -10 58 12 18 14 40 27 48 31 33 12 -27 4 -100 -15z"/>
<path d="M4280 6329 c-25 -4 -110 -8 -190 -9 -80 -1 -154 -5 -165 -10 -18 -8
-17 -9 8 -9 30 -1 34 -15 16 -54 -15 -33 -36 -42 -164 -67 -60 -12 -137 -30
-169 -41 -76 -24 -98 -24 -114 2 -14 21 -14 21 -33 -11 -15 -24 -23 -29 -33
-21 -13 11 -18 10 -125 -28 -62 -21 -105 -59 -90 -77 17 -20 8 -25 -58 -33
-73 -9 -135 -40 -194 -98 -52 -50 -67 -49 -108 3 -15 19 -21 22 -21 11 0 -22
-21 -67 -32 -67 -4 0 -8 8 -8 18 0 9 -12 -3 -27 -28 -30 -51 -41 -60 -60 -53
-9 4 -16 -3 -20 -16 -7 -27 -11 -26 -44 5 l-27 26 -32 -64 c-36 -72 -120 -148
-143 -129 -10 8 -22 -3 -49 -45 -20 -30 -39 -60 -42 -67 -5 -9 -7 -9 -12 1 -3
6 -14 12 -25 12 -12 0 -28 14 -40 35 -21 35 -45 39 -34 5 4 -13 -9 -39 -40
-80 -25 -34 -45 -67 -45 -73 0 -5 -12 -25 -26 -44 -26 -35 -50 -35 -41 -1 4
12 1 17 -6 14 -7 -3 -20 -9 -29 -12 -10 -3 -20 -14 -23 -24 -9 -28 -43 -53
-82 -59 -32 -5 -40 -13 -67 -66 -17 -33 -33 -62 -36 -65 -3 -3 -24 -43 -47
-90 -110 -226 -166 -374 -156 -420 3 -17 8 -30 10 -30 3 0 18 14 33 30 15 17
32 30 37 30 15 0 8 -210 -9 -253 -26 -68 -48 -72 -71 -15 l-12 30 -27 -21
c-38 -30 -52 -82 -51 -193 1 -91 3 -100 28 -130 22 -26 25 -37 19 -62 -4 -17
-6 -40 -5 -51 0 -11 2 -51 3 -88 l3 -69 50 -40 c28 -23 49 -48 48 -57 -2 -16
24 -96 37 -116 4 -5 10 -23 14 -40 4 -16 13 -37 21 -45 7 -8 16 -25 19 -37 6
-19 2 -25 -19 -33 l-26 -10 26 -43 c30 -52 34 -108 8 -101 -13 4 -21 -4 -29
-30 -9 -30 -8 -40 8 -63 14 -22 15 -30 5 -38 -18 -15 -37 -76 -37 -123 0 -23
14 -76 30 -117 17 -42 32 -91 34 -108 4 -26 62 -140 119 -231 36 -59 102 -151
109 -154 5 -2 15 -18 22 -35 7 -18 27 -45 44 -62 17 -16 32 -33 32 -36 0 -16
232 -253 335 -344 22 -19 45 -35 52 -35 6 0 13 -4 15 -8 5 -12 116 -93 193
-141 39 -24 81 -51 95 -61 22 -14 150 -82 190 -100 8 -4 34 -16 57 -28 23 -12
50 -22 60 -22 11 0 24 -5 29 -10 11 -11 133 -58 169 -65 11 -3 45 -12 75 -21
113 -32 273 -66 380 -79 30 -4 75 -10 101 -14 118 -19 419 -12 574 13 11 2 43
7 70 10 105 14 370 82 450 115 112 47 202 81 320 121 167 58 245 92 279 121
13 12 47 35 74 53 143 90 358 289 491 456 41 52 79 100 84 105 5 6 21 28 35
51 15 22 49 74 77 115 58 87 146 257 199 384 52 126 121 348 131 420 2 17 10
57 18 90 17 66 20 95 38 295 26 300 -20 707 -111 1000 -54 170 -179 443 -267
579 -104 161 -128 194 -264 354 -79 93 -115 129 -249 244 -98 86 -233 186
-300 224 -15 8 -49 29 -76 46 -58 36 -234 123 -284 140 -19 7 -84 20 -144 29
-150 22 -563 16 -679 -10 -43 -10 -81 -16 -83 -13 -2 2 16 15 41 28 39 21 60
41 38 38 -5 -1 -28 -5 -53 -10z m-893 -505 c-40 -37 -92 -87 -116 -111 l-44
-44 -71 2 c-40 1 -82 -3 -94 -10 -39 -21 -27 22 18 63 38 34 56 42 110 48 17
2 25 9 25 22 0 13 18 25 65 45 36 14 74 31 85 38 11 7 37 13 57 13 l37 0 -72
-66z m-517 -130 c0 -4 -8 -13 -17 -20 -16 -12 -11 -13 34 -14 28 0 55 -4 58
-10 3 -5 2 -10 -3 -10 -6 0 -19 -17 -30 -39 -18 -34 -19 -40 -5 -54 8 -8 12
-20 8 -26 -9 -16 -106 -62 -116 -55 -17 10 -89 -37 -122 -81 -24 -31 -36 -60
-41 -96 -6 -45 -14 -59 -63 -110 -31 -33 -61 -59 -68 -59 -10 0 -52 50 -74 88
-5 9 -19 10 -54 3 -53 -10 -55 -6 -27 49 11 22 20 47 20 56 0 9 32 48 71 86
46 45 70 62 66 49 -12 -46 61 -14 128 58 22 23 44 50 50 61 12 23 153 130 172
130 7 0 13 -3 13 -6z m-420 -674 c0 -17 7 -20 40 -20 l39 0 -31 -47 c-17 -27
-38 -54 -46 -60 -16 -13 -164 -14 -159 -1 5 18 133 148 145 148 6 0 12 -9 12
-20z"/>
<path d="M3275 6304 c-22 -8 -59 -21 -81 -29 -88 -32 -105 -42 -143 -97 l-41
-56 44 -6 c37 -6 53 -2 114 30 68 34 72 38 72 69 0 28 7 39 38 61 68 51 68 55
-3 28z"/>
</g>
</svg>
